/* XPM */
static char *f861c681dbf44e2395859b2fff2f5d63pnbqppcL3whKpx5l[] = {
/* columns rows colors chars-per-pixel */
"50 50 208 2 ",
"   c #2B1C14",
".  c #251E1A",
"X  c #2A1E19",
"o  c #301E13",
"O  c #282116",
"+  c #25231B",
"@  c #2C2119",
"#  c #2F281A",
"$  c #22281E",
"%  c #342116",
"&  c #3A2412",
"*  c #3C271A",
"=  c #30291B",
"-  c #3A2918",
";  c #38321B",
":  c #1A1F21",
">  c #172B28",
",  c #182824",
"<  c #15352E",
"1  c #17382F",
"2  c #193A2E",
"3  c #19352B",
"4  c #163730",
"5  c #143930",
"6  c #233A2B",
"7  c #353F2E",
"8  c #273D30",
"9  c #272B20",
"0  c #441C08",
"q  c #441C07",
"w  c #4E2307",
"e  c #4E2608",
"r  c #4E290A",
"t  c #512606",
"y  c #532907",
"u  c #592805",
"i  c #522709",
"p  c #542C0B",
"a  c #5A2D0A",
"s  c #592704",
"d  c #5E3407",
"f  c #472915",
"g  c #543417",
"h  c #5E3817",
"j  c #523519",
"k  c #5C3A19",
"l  c #5C3513",
"z  c #6C2F00",
"x  c #663103",
"c  c #6B3102",
"v  c #733500",
"b  c #793700",
"n  c #773902",
"m  c #793800",
"M  c #643C16",
"N  c #6E3D12",
"B  c #653E18",
"V  c #673D24",
"C  c #38441F",
"Z  c #1E432F",
"A  c #1C482F",
"S  c #1C4930",
"D  c #1D5634",
"F  c #1D5D36",
"G  c #234D2C",
"H  c #2A4529",
"J  c #26542C",
"K  c #224C30",
"L  c #2A4239",
"P  c #235C32",
"I  c #28593B",
"U  c #355129",
"Y  c #1F6138",
"T  c #1E6337",
"R  c #216335",
"E  c #266932",
"W  c #2A6D33",
"Q  c #216539",
"!  c #277738",
"~  c #42481E",
"^  c #68411B",
"/  c #794716",
"(  c #5A4A2B",
")  c #555031",
"_  c #784B25",
"`  c #655332",
"'  c #72502A",
"]  c #2C5F43",
"[  c #326149",
"{  c #2B6740",
"}  c #486E59",
"|  c #477257",
" . c #823E00",
".. c #854304",
"X. c #894605",
"o. c #83460B",
"O. c #8C4A0A",
"+. c #884809",
"@. c #93520F",
"#. c #875017",
"$. c #8D5417",
"%. c #855018",
"&. c #8A5319",
"*. c #925312",
"=. c #965917",
"-. c #925518",
";. c #95591B",
":. c #A05F1E",
">. c #A2601C",
",. c #825123",
"<. c #9C6225",
"1. c #966736",
"2. c #A76E34",
"3. c #AA7139",
"4. c #A97035",
"5. c #BE7C36",
"6. c #B27334",
"7. c #A86726",
"8. c #C17E38",
"9. c #1F8D37",
"0. c #2D813C",
"q. c #2A8D3C",
"w. c #258F3A",
"e. c #37883A",
"r. c #2D933E",
"t. c #2F9C3F",
"y. c #339B3D",
"u. c #37993C",
"i. c #2BA13C",
"p. c #34A53E",
"a. c #36AC3F",
"s. c #39AC3F",
"d. c #39A53E",
"f. c #36B53F",
"g. c #38BD3F",
"h. c #37B73E",
"j. c #28B833",
"k. c #418D3C",
"l. c #2E8D42",
"z. c #338C40",
"x. c #339441",
"c. c #399642",
"v. c #339941",
"b. c #3B9C42",
"n. c #399949",
"m. c #34A340",
"M. c #3AA242",
"N. c #31AC41",
"B. c #3CAD43",
"V. c #39AF48",
"C. c #36B441",
"Z. c #3AB542",
"A. c #37BA40",
"S. c #3ABE41",
"D. c #3EB748",
"F. c #3FBA48",
"G. c #27B659",
"H. c #28B658",
"J. c #2BB051",
"K. c #34B453",
"L. c #2EB361",
"P. c #439953",
"I. c #4B9C54",
"U. c #44A644",
"Y. c #44AB43",
"T. c #49A745",
"R. c #42BE49",
"E. c #4EB347",
"W. c #54BD45",
"Q. c #52B346",
"!. c #52A459",
"~. c #4BB754",
"^. c #52BC5B",
"/. c #6ABE6F",
"(. c #6ABD73",
"). c #67B373",
"_. c #70B773",
"`. c #3AC040",
"'. c #43C342",
"]. c #43C149",
"[. c #4CC946",
"{. c #55CA46",
"}. c #5BC747",
"|. c #5AD347",
" X c #5DD548",
".X c #52C657",
"XX c #60CF49",
"oX c #60C747",
"OX c #63D44B",
"+X c #65DA4A",
"@X c #6ADD4B",
"#X c #66D351",
"$X c #6ADA52",
"%X c #6DE14B",
"&X c #74E453",
"*X c #70E54C",
"=X c #67C171",
"-X c #6ECF73",
";X c #6ED072",
":X c #75D376",
">X c #62CA69",
",X c #86D578",
"<X c #8AE179",
"1X c #92E67B",
"2X c #9BC797",
"3X c #95DB98",
"4X c #A1CC9D",
"5X c #B8EBA7",
/* pixels */
":X-X-X;X-X-X;X-X;X-X-X;X;X-X(.(.-X-X(.(.-X-X-X-X-X-X-X-X;X-X-X;X;X;X-X;X-X;X;X:X-X-X-X-X:X-X/./.-X3X",
"S.S.S.S.S.S.S.S.S.`.S.S.S.A.C.C.S.S.C.C.S.S.S.S.S.S.S.S.S.S.S.S.S.S.S.S.S.S.S.S.S.S.S.S.S.S.f.g.A..X",
"].S.S.S.S.S.S.S.S.S.S.S.S.S.S.`.S.S.S.S.`.S.S.S.S.S.S.S.S.S.S.S.S.S.S.S.S.S.S.S.S.S.S.S.S.S.`.`.A.-X",
"].S.S.S.S.S.S.S.S.S.S.S.S.S.S.S.S.S.S.S.S.S.S.S.S.S.S.S.S.S.S.S.S.S.S.S.S.S.S.S.S.S.S.S.S.S.S.S.S.-X",
"].S.S.S.S.S.`.S.`.S.S.S.S.S.S.S.S.S.S.S.S.S.S.S.S.S.S.S.K.L.R.F.S.S.`.S.S.S.S.`.S.S.'.'.S.S.S.S.S.-X",
"].S.S.S.S.S.S.S.S.S.S.S.S.S.S.S.S.S.S.S.`.S.S.S.S.S.S.S.S.S.S.S.S.S.S.S.S.S.S.g.S.'. X X'.S.S.S.S.-X",
"[.].`.S.S.S.S.S.S.S.S.S.S.S.S.S.S.S.S.S.S.S.S.S.S.S.S.S.S.S.S.S.S.S.S.S.S.S.`.g.g.'.|. X'.g.S.S.S.-X",
"OX|.`.A.S.S.S.S.S.S.S.S.S.S.S.S.S.`.S.S.S.S.S.S.S.S.S.S.g.g.S.S.S.S.S.S.`.S.`.`.S.S.`.'.S.S.S.S.S.;X",
"$X+X[.`.`.S.'.'.`.A.u.q.l.q.B.S.S.S.S.`.g.`.'.'.S.S.S.S.'.'.S.S.S.`.S.S.A.q.! r.C.S.S.S.S.S.S.S.S.-X",
"#X%X+X|.`.`.|.|.'.C.K + @ 6 v.S.S.S.S.`.g.'. XOX'.A.S.'.|. X'.g.S.S.S.S.0.$ + G d.S.S.S.S.S.S.S.S.-X",
"$X%X%X+X[.[.+X+XY.u.) V V ( z.M.v.i.t.v.y.y.T.T.M.m.y.m.E.Q.M.t.m.v.v.x.( V V ` k.d.A.S.`.S.S.S.S.-X",
"$X%X%X%X+X+X%XE.8 ` 1.3.3.2.` 7 5 5 1 1 1 2 1 1 2 1 4 1 1 1 1 2 4 4 2 ) 1.2.3.1.' 7 q.S.S.S.S.S.S.;X",
"&X+X|.XX$X@XOX> X _ 4.8.8.2.,.f     o % % % % % % % % o o % % % o o f _ 2.5.8.6.,.f , v.S.S.S.S.S.;X",
"&XOXU.Y.OXOXU.< @ B <.7.:.*.N a i l B B B M B B B B B M B B B B M M ^ ,.<.7.>.=.^ % > p.S.S.S.`.S.-X",
"#XW.x.x.W.}.b.5 @ k &.-.X.m b b n o.$.-.&.&.$.$.-.$.&.$.$.$.-.-.&.$.$.-.=.=.O.m u % > p.S.S.S.`.S.-X",
"I.c.e.z.c.M.B.1 @ k &.@. .v b m  .X.@.*.@.@.@.@.*.*.@.@.@.@.*.@.@.*.*.*.-.@...v u   > p.S.S.S.S.S.-X",
"n.x.v.v.x.v.A.5 @ h #.*...v m m m ................ ....... ...........O.=.*.X.v u o > p.S.S.S.S.S.-X",
"F.Z.C.C.C.C.S.5 @ h $.*...m m v v v c v v v c v v v c v v v v v v c v o.*.*.X.m u   > p.S.S.S.S.S.;X",
"].`.`.`.`.`.S.5 @ h &.@...v x y e e w w w w w w w w w w w w w w e e y N &.*.X.n u o > p.S.S.S.S.S.;X",
"].S.S.S.`.`.`.5 @ h &.@...v a % . O O   O O O O O O O O O O . O O . @ k &.*.X.m u o > p.g.g.S.g.S.-X",
"].`.'.'.S.S.S.5 @ h #.@...v u   > R q.r.r.r.r.r.x.r.r.r.r.r.r.r.! 2 . j #.*.X.n u o > p.'.'.g.g.S.-X",
"F.'. X X'.S.S.4 @ h $.@.X.v t   P a.S.S.S.S.S.A.S.S.S.S.S.S.S.S.A.! X g #.*.X.m s o > s.|. X'.g.S.;X",
"].'.+X+X'.S.`.5 @ h &.@...v t   ! g.K.G.G.G.G.G.G.G.G.G.G.G.G.J.g.m.@ g #.*.X.m u o > s.OX@X[.'.S.-X",
"].'.+X+X'.S.`.4 @ h $.@...n t   P f.g.g.C.g.C.g.C.g.Z.A.A.C.A.A.g.0.. j $.*.X.n s o > d. X%X+X|.`.-X",
"].'.}.{.'.S.S.5 @ h &.@.X.v t   , G R W W W E E E E E E E E E E J 3 . j %.*.X.m u   > Y.+X%X%X+X[.:X",
"].h.M.M.Z.`.S.5 @ h &.@...v u & O   = = = # # # # # # # # # = = @ @ - k &.*.X.n u o > W.+X@X%X%X+X<X",
"].h.y.v.C.`.S.5 @ h &.@...v x a p l M M M M M M M M M M M M M M M M B / $.*.X.n s o > }.%X+XXXXX@X1X",
"].g.C.C.S.S.S.5 X M &.@...b b v n o.$.$.-.*.$.$.$.-.$.$.-.$.$.*.$.-.-.=.;.*.X.m s o > oX*XOXU.U.OX1X",
"].S.`.`.S.S.S.1 X M #.*...b b  ...X.@.@.@.@.@.@.@.$.@.@.@.*.@.@.@.@.@.*.=.$.X.b u o > Q. XW.c.x.W.,X",
"].S.S.S.S.S.S.5 X k #.*...b b m m ............ . ... ... ..... .......O.*.$.X.m u o > e.b.c.z.z.c._.",
"].S.S.S.S.`.S.5 X M $.*./ b n v c v c v v c c v v c v v v v c v v c n o.*.*.X.m u o > 0.x.x.v.x.x.).",
"].S.S.S.S.S.S.5 X M &.@. .v x p y e t t i t t t t t t e e e t t t e p N #.-.X.m u   > y.C.C.Z.C.C.-X",
"].S.S.S.S.S.S.5 + h &.@.X.b u % .                                 . o g %.*.X.m u o > a.`.`.`.`.`.;X",
"].`.S.S.S.S.S.5 @ h &.@...v y   : Z D T R R Q T R R I [ } } [ ] Z , . g $.*.X.m u o > p.g.g.S.S.S.-X",
"].S.S.S.`.S.S.5 @ h &.*...v t   2 l.~.^.D.N.N.C.C.m.w.n.2X2XP.9.l.D + g #.*.X.b u o > p.`.S.S.S.S.;X",
"].S.S.S.S.S.S.5 @ h &.*...v u   S ~.5X5X.Xj.g.S.S.A.C.B.!.!.D.C.A.! X g #.*.X.n u   > p.S.S.S.S.S.-X",
"].S.S.S.S.S.S.5 @ h &.@.X.v t   L I.2X4X/.~.D.N.N.N.C.N.l.w.m.C.v.D . g %.*.X.m s o > a.S.S.S.S.S.-X",
"].`.S.S.S.`.S.5 @ h $.@.X.v t   : 8 ] ] } } { Y R Q R R Y F Q Q S , . j &.*.X.m s o > p.S.S.S.S.S.;X",
"].S.S.S.S.S.S.5 @ h &.@...v a & X X %     o o o o o o X X o o o X @ = B &.*.X.n s o > p.S.S.S.S.S.-X",
"].S.S.S.S.S.S.5 @ h $.@...v x a p l M M M M M M B M B M B B M M M M B / $.*.X.m s o > p.S.`.S.S.S.-X",
"].S.S.S.S.S.S.5 @ h $.*...b v v n o.$.$.$.$.$.$.*.&.-.&.$.$.$.$.$.$.$.=.=.*.X.b u o > p.`.S.S.S.S.-X",
"].S.S.S.S.S.S.5 @ h $.*./ b b m  .+.@.*.*.*.*.*.*.@.*.@.*.@.*.*.*.*.*.*.=.$.X.m s o > p.S.S.S.S.S.-X",
"].S.S.S.S.S.S.5 @ h &.@...b m m  . .X...............X.......X.X.......O.-.*.X.b s o > p.`.S.S.S.g.-X",
"].S.S.S.`.S.`.4 @ h #.*...b b b b v v v v v v b v v v b v v v v v v n o.*.$.X.b u o > p.S.S.S.S.g.-X",
"].S.S.S.S.S.S.< X a o.O. .b z u t t t t t t t t t t t t w t t t t t t v o.O...m s o , p.S.S.S.S.'.:X",
"].`.S.S.S.S.S.D X i b .. .v u % O X   O   O     X   @   X     O   X X p n  . .m x   Z a.S.S.g.'.|.<X",
"].S.S.S.S.S.S.a.J ~ x x x x ~ J S S A A A A A A K G G A G G A A A A G U x x c x r H y.S.S.S.g.'.|.<X",
"].S.S.S.S.S.S.`.s.u.C q q f e.s.a.a.f.a.a.a.C.p.y.y.p.a.t.y.a.a.a.s.s.u.; 0 q & U u.S.S.S.S.S.`.].:X",
"S.`.S.S.S.S.S.S.S.Z.I + $ 2 u.g.S.S.S.S.S.S.`.C.i.t.g.g.i.t.f.`.S.S.S.a.A $ O G p.A.S.S.S.S.S.S.S.>X",
".X].].`.].].].].].].F.F.D.R.R.R.].].].].].].].].F.R.R.R.F.F.].].].].].].F.D.D.F.].R.].].].].].].].:X"
};
