/* XPM */
static char *bf8de0ddd800495b903b36ef02d9f761rykpwimQHHoAYRUh[] = {
/* columns rows colors chars-per-pixel */
"50 50 179 2 ",
"   c #3E005C",
".  c #42005F",
"X  c #54006A",
"o  c #5E0075",
"O  c #5C007B",
"+  c #540075",
"@  c #62007A",
"#  c #600077",
"$  c #52266C",
"%  c #5C2575",
"&  c #562670",
"*  c #553A6C",
"=  c #602975",
"-  c #633C76",
";  c #5F4B74",
":  c #604973",
">  c #6A517D",
",  c #328D3F",
"<  c #2A9C3B",
"1  c #279D36",
"2  c #2EA43C",
"3  c #2EA83D",
"4  c #35A83E",
"5  c #34B33F",
"6  c #34BB3C",
"7  c #38BD3F",
"8  c #38B33F",
"9  c #39C03F",
"0  c #328E41",
"q  c #349241",
"w  c #389642",
"e  c #349C41",
"r  c #3B9C44",
"t  c #3F9C4A",
"y  c #34A241",
"u  c #3AA642",
"i  c #35AB41",
"p  c #3CAC46",
"a  c #3DA34B",
"s  c #37B641",
"d  c #39B542",
"f  c #37BA40",
"g  c #3ABE41",
"h  c #42A343",
"j  c #4BAF44",
"k  c #45AA4A",
"l  c #40BE44",
"z  c #4BBA44",
"x  c #43BE4B",
"c  c #52BC46",
"v  c #4BA255",
"b  c #4CBC54",
"n  c #55B55D",
"m  c #53BB5B",
"M  c #57BB5B",
"N  c #5AAF62",
"B  c #5AB362",
"V  c #6BBA62",
"C  c #61A667",
"Z  c #3CC041",
"A  c #41C145",
"S  c #48C643",
"D  c #4CCA45",
"F  c #45C14B",
"G  c #49C748",
"H  c #56C047",
"J  c #52CD45",
"K  c #58CC46",
"L  c #59C24A",
"P  c #58C84A",
"I  c #55D046",
"U  c #59D247",
"Y  c #5DD548",
"T  c #57D148",
"R  c #4CC451",
"E  c #5BC453",
"W  c #50C653",
"Q  c #61CF49",
"!  c #63D44B",
"~  c #64DA4A",
"^  c #6ADD4B",
"/  c #62C65E",
"(  c #6BDB52",
")  c #64D551",
"_  c #71DF55",
"`  c #6EE14B",
"'  c #74E356",
"]  c #79D363",
"[  c #660083",
"{  c #6A0084",
"}  c #6E008A",
"|  c #71018C",
" . c #760093",
".. c #76009B",
"X. c #6B2381",
"o. c #772F8A",
"O. c #7B00A8",
"+. c #7B4A95",
"@. c #7B5C94",
"#. c #75578D",
"$. c #796F8D",
"%. c #747B87",
"&. c #7A6E91",
"*. c #8C00AE",
"=. c #8500A5",
"-. c #8B00B5",
";. c #8F00B9",
":. c #9200B4",
">. c #9601BA",
",. c #9A00BF",
"<. c #951FBA",
"1. c #8D24B0",
"2. c #9622BA",
"3. c #8C5599",
"4. c #8755A6",
"5. c #9A67BF",
"6. c #917AB2",
"7. c #9773B9",
"8. c #9673B9",
"9. c #A276BE",
"0. c #9C01C1",
"q. c #9803C7",
"w. c #A300CA",
"e. c #A904CD",
"r. c #AE00D7",
"t. c #AE00D9",
"y. c #B101DB",
"u. c #B308DC",
"i. c #A31CC8",
"p. c #A532CD",
"a. c #A82FD0",
"s. c #A831D0",
"d. c #B700E3",
"f. c #B900E6",
"g. c #BB3EE6",
"h. c #BD35E8",
"j. c #BB36E1",
"k. c #CD01FF",
"l. c #D504FF",
"z. c #D608FF",
"x. c #DB0AFF",
"c. c #CE1CFF",
"v. c #CD10FF",
"b. c #E207FF",
"n. c #E411FF",
"m. c #C03AEA",
"M. c #CC23FF",
"N. c #CC2FFF",
"B. c #D128FF",
"V. c #CE32FF",
"C. c #DD35FF",
"Z. c #D130FF",
"A. c #CE44FF",
"S. c #CF4DFE",
"D. c #D04EFF",
"F. c #D842FF",
"G. c #CF57FF",
"H. c #D253FF",
"J. c #DD54FF",
"K. c #D25AFF",
"L. c #DD5BFF",
"P. c #E15DFF",
"I. c #E261FF",
"U. c #6D8080",
"Y. c #768087",
"T. c #728C82",
"R. c #7B8288",
"E. c #7B9184",
"W. c #81888A",
"Q. c #80878A",
"!. c #859986",
"~. c #8C85A8",
"^. c #9182AD",
"/. c #9F87B3",
"(. c #9ACD92",
"). c #9CD792",
"_. c #B4D3AA",
"`. c #B8D7AD",
"'. c #B0E5A3",
/* pixels */
"R Z A A x Z A x A A Z x Z x p p g x p p g x x Z A A A x Z F Z F Z Z Z F Z F Z F g F F g Z Z d p d F ",
"g g g g g g g g g g g g g g g g g g g g g g g g g g g g g g g g g g g g g g g g g g g g g g g g g g ",
"F g g g g g g g g g g g g g Z g g g g g g g g g g g g g g g g g g g g g g g g g g g g g g g Z 9 g g ",
"F g g g g g g g g g g g g g g g g g g g g g g g g g g g g g g g g g g g g g g g g g g g g g g g g F ",
"F g g g g Z g g g g g Z g g g g g g g g g g g g g g g g g g g g g g g g g g g g g g G J S g g g g Z ",
"F g g g g g g g g g g g g g g g g g g g g g g b m m N n g g g g g g g Z Z g g g g g T ~ J g g g g F ",
"W D Z g g g g g g g g g Z g g g g g g g g g g 6.C.q.. % b g g g g g g g g g g g g g G I S g g g g F ",
"( ~ A g g g g g g g g g g g g g g g g g g g 8.S.P.a.O [ & b g g g g g g g g g g g g g g g g g g g g ",
"( ~ U S 9 9 D D 9 7 9 7 g g g g g g g g g ^.A.D.P.s.# } [ ; M g g g g g g g g g g g Z f g g g g g Z ",
") ` ` Y A A ! ~ S 7 g Z g Z g g g g g A ~.7.S.D.P.s.# } | O - N g g g g g g g g g g g g g g g g g F ",
"( ` ` ` I J ^ ~ S 7 g g g g g g g g x ~.M.G.S.S.P.s.@ } | | @ % N g g g g g Z g g g g g g g g g g g ",
"' ^ ^ ~ ^ ^ ^ ~ S 7 g g g g g g g g 6.V.H.S.S.S.P.p.o } } | | [ $ n g g g g g g g g g g g g Z g g F ",
"' ! c H ^ ^ L z l 7 g g g g g g g 7.A.H.S.H.S.H.L.a.o } | } } } } $ n g g g f Z g Z g g g g g g g F ",
"_ Y r h Q Q h , d Z g g g g g F ^.A.D.D.S.S.D.K.Z.l.t.o { | } } } [ * n g g Z g Z f g g g g g g g A ",
"M j , q j c u y 8 9 g g g g n &.d.L.H.D.S.H.G.V.k.l.z.e.@ @ | | } [ [ +.B Z g g g Z g g g g g g g F ",
"t , , w , r 8 f g g g g g g &.O.>.m.H.J.G.H.V.k.k.k.z.x.0.{ # } [ | q.q.@.g g g g f Z g g g g g g Z ",
"a e y y e y f 9 g g g g g g T.;.>.>.g.H.H.V.k.k.k.k.k.k.n.w.@ {  .0.w.;.Y.g g g g g g g g g g g g F ",
"F f f g g g g g g g g g Z g T.;.0.>.-.g.F.k.k.k.k.k.k.k.k.n.w.{ 0.0.0.;.Y.g g g g g g g g g g g g Z ",
"F Z g 7 Z Z g g g g g g g g T.;.,.,.,.>.u.k.k.k.k.k.k.k.k.x.d.*.0.0.0.;.Y.g g g Z g g g g g g g g Z ",
"F g g g g g g Z Z g g g g g T.;.,.,.,.*.r.z.k.k.k.k.k.k.k.z.f.>.,.,.,.;.Y.g g g g g g g g g g g g F ",
"A Z S S Z g g g g g g g g g T.;.,.,.,.:.r.z.k.k.k.k.k.k.k.l.d.:.,.,.,.;.Y.g g g g g g g A S S g g F ",
"F A Y ~ A 7 g g g g g g g g T.-.,.,.,.:.r.z.k.k.k.k.k.k.k.z.d.:.,.,.,.;.R.g g g g g g 7 J ^ J Z f Z ",
"A S ~ ~ S 7 Z g g g g g Z g T.;.,.,.,.:.r.l.k.k.k.k.k.k.l.l.d.:.,.,.0.;.W.Z g g Z S A Z I ^ Y S A F ",
"F A ^ ~ A g g g g g g g g g T.;.,.,.,.:.r.l.k.k.k.k.k.k.k.z.d.:.,.,.,.>.W.Z g 7 I ~ D Z D ` ^ ~ D Z ",
"F g G c l g g g g g g g g 9 E.;.,.,.,.:.r.l.k.k.k.k.k.k.k.z.d.:.,.,.,.;.R.g 7 g T ^ Y D Y ^ ` ` Y P ",
"F s r e d 7 g g g g g g 7 A !.;.,.,.,.:.r.z.k.k.k.k.k.k.k.z.d.:.,.,.,.;.%.g g g K ^ ^ ^ ^ ^ ^ ^ ~ ( ",
"F f y e d 9 g g g g g g 7 A !.:.,.,.,.:.r.l.k.k.k.k.k.k.l.l.d.:.,.,.0.;.%.g g g z L Q ` ` ^ Y c Y ( ",
"F Z f f g g g g g g Z g 7 A !.:.,.,.,.;.r.l.k.k.k.k.k.k.k.z.d.:.,.,.,.;.%.g Z g y w c ^ ` ^ c w c ( ",
"F g 9 Z g g g g g g g g 7 A !.;.,.,.,.:.r.l.k.k.k.k.k.k.k.l.d.:.,.,.,.;.Y.g 9 g i e j H P c h 0 h L ",
"F g g g g g g g g g g g 7 A !.-.,.,.,.-.r.l.k.k.k.k.k.k.k.z.d.:.,.,.,.;.Y.g g g g f y w w q q 0 0 t ",
"F g g g g g g g g g g g 7 Z E.;.,.,.,.:.r.z.k.k.k.k.k.k.l.l.d.:.,.,.0.;.Y.g g g Z g i e e e e e e t ",
"F g g g g Z g g g g g g g 7 Y.:.,.,.,.:.r.z.k.k.k.k.k.k.k.z.d.*.,.,.,.;.Y.g g g g g g f d d f d g g ",
"F g g g g g g g g g g g Z f U.;.,.,.,.:.t.z.k.k.k.k.k.k.k.z.d.:.,.,.,.>.%.Z g g g g g Z Z 9 Z 9 Z F ",
"F g g g g g g g g g g g g g T.;.,.,.w. .>.n.k.k.k.k.k.k.k.l.M.g.:.:.0.;.R.g g g g g g g g g g g g g ",
"F g g g Z g g g g g g g g g $.-.e.w.=.[ { e.n.l.k.k.k.k.k.M.H.H.h.>.:.-.@.g g g g g g g g g g g g F ",
"F g g Z g g g g g g g g g Z B #...*.{ } @ { r.z.l.k.k.k.c.D.K.H.K.j.>.+.B g g g g g g Z g g g g g Z ",
"F g g g g g g g 7 9 A S Z g 7 b ; @ } } | @ @ y.l.l.k.c.H.G.D.D.D.L.4.B g g g g g Z g g g g g Z g F ",
"F g g g Z g g g 7 A Y ! A 7 6 W '.o.{ } | } } o y.l.v.S.H.D.S.S.D.5.m g g g g g g g g g g g g g g g ",
"F g g g g g g g 7 A U U G g 6 G ).`.X.O | | } { } i.J.H.S.S.H.A.5.b g g g g g g g g g g g g g g g F ",
"F g g g g g g g 9 9 A A g g g g k C _.3.+ | } | X 1.I.D.S.H.N.6.m g g g g g g g g g g g g g g g g Z ",
"F Z g g g g g Z 7 7 7 7 g g 9 f 1 t (.`.> O | | o 2.P.D.H.V.^.m g Z g g g g g Z g g g g g g g g g F ",
"F g g g g g g g 7 9 g g g g g g 7 d v v k : @ } o <.P.D.A./.E g g g g g g g g g g g g Z g g g g g Z ",
"F g g g g g g g g l 7 g g g g g 9 7 2 < s F = } o <.P.A.7._ D g f g g g g g g g g g g g g g g g g F ",
"F g g g g g g g g g 9 g g g g g g g 8 s g f p %   -.C.7.Y ^ D g f Z g g g g g g g g g g g g g g Z Z ",
"F g g g g g g g g g g g g g g g g g 9 Z Z f 2 v V ] / m U ^ D g g g g g g g g g g g g g Z g g g Z G ",
"F g g g g g g g g g g g g g g g g g g g g g s f U ^ D Z Y ^ J g g g g g g g g g g g g g g g g g D ( ",
"F g g g g g Z g g g g g g g g g g g g g g g 7 Z J K S Z D K G g g g g g g g Z g g g g g g g g g D ) ",
"F g g g g g g g g g g g Z g g g g g g g g g g 7 4 4 8 g 4 4 5 g g g Z g g g g g g g g g g g g g Z F ",
"g g g g g g g g g g Z g g g g g g g g g g g A f 2 < 5 g 2 < i Z Z f Z g g g g g g g g g Z g g g g g ",
"W F F F F F F F F F F F F F F F F F F F F F F F x x x F x x A F F F F F Z F F F F F F F F F F F F R "
};
