/* XPM */
static char *result[] = {
/* columns rows colors chars-per-pixel */
"50 50 221 2 ",
"   c #000001",
".  c #131514",
"X  c #131A16",
"o  c #160611",
"O  c #200710",
"+  c #2C151B",
"@  c #1D331D",
"#  c #3C341A",
"$  c #1E0F2A",
"%  c #261928",
"&  c #351C29",
"*  c #251831",
"=  c #38272A",
"-  c #2F203B",
";  c #3B2C32",
":  c #352635",
">  c #3E3537",
",  c #2E2027",
"<  c #403B12",
"1  c #4A3B3E",
"2  c #413437",
"3  c #49352D",
"4  c #19431D",
"5  c #26442E",
"6  c #225325",
"7  c #2A5024",
"8  c #355633",
"9  c #395A27",
"0  c #28682A",
"q  c #2C752E",
"w  c #376838",
"e  c #3B793C",
"r  c #39752B",
"t  c #4C4438",
"y  c #44503F",
"u  c #5B5435",
"i  c #544D27",
"p  c #635C2C",
"a  c #417C38",
"s  c #77742E",
"d  c #716F29",
"f  c #342C46",
"g  c #3D374B",
"h  c #2D2340",
"j  c #4C3C44",
"k  c #453C46",
"l  c #553943",
"z  c #483153",
"x  c #3B4247",
"c  c #3A7A45",
"v  c #376646",
"b  c #4A4649",
"n  c #5C4B4C",
"m  c #57484B",
"M  c #465C44",
"N  c #4A4459",
"B  c #534B5B",
"V  c #574852",
"C  c #4E5457",
"Z  c #535656",
"A  c #5C5B5B",
"S  c #585656",
"D  c #635958",
"F  c #694E57",
"G  c #5B605F",
"H  c #587656",
"J  c #4F6F4A",
"K  c #766945",
"L  c #736D56",
"P  c #5A5F65",
"I  c #685D65",
"U  c #5D6465",
"Y  c #5A6068",
"T  c #6C6662",
"R  c #64686A",
"E  c #666766",
"W  c #776B68",
"Q  c #70706B",
"!  c #7C7373",
"~  c #7A7976",
"^  c #807545",
"/  c #857B6D",
"(  c #8B6B77",
")  c #8B7471",
"_  c #2B9C3C",
"`  c #2D953C",
"'  c #38963D",
"]  c #318D34",
"[  c #2CA43B",
"{  c #2FAB3C",
"}  c #34A43D",
"|  c #32AB3D",
" . c #3EAC3E",
".. c #2EBA36",
"X. c #34B33E",
"o. c #35BC3C",
"O. c #39BD3F",
"+. c #39B43E",
"@. c #488839",
"#. c #469639",
"$. c #529D38",
"%. c #49A73E",
"&. c #47A93C",
"*. c #45B43E",
"=. c #42B83E",
"-. c #48B03E",
";. c #3AC03F",
":. c #45C13E",
">. c #338E41",
",. c #329341",
"<. c #399643",
"1. c #349B42",
"2. c #3B9B42",
"3. c #3C9A4B",
"4. c #35A541",
"5. c #3CA342",
"6. c #36AC41",
"7. c #3BAB43",
"8. c #3EA449",
"9. c #37B441",
"0. c #39B442",
"q. c #37BA40",
"w. c #3ABE41",
"e. c #458A49",
"r. c #499D44",
"t. c #4D9B4D",
"y. c #459849",
"u. c #539B4A",
"i. c #4B9B53",
"p. c #529C55",
"a. c #4BA543",
"s. c #42AA44",
"d. c #49AC43",
"f. c #48A349",
"g. c #54A64D",
"h. c #50A848",
"j. c #45B541",
"k. c #42BA41",
"l. c #42BD49",
"z. c #49B346",
"x. c #52BB46",
"c. c #58B748",
"v. c #5AA458",
"b. c #5AB158",
"n. c #4BAB52",
"m. c #60AD5F",
"M. c #5AA560",
"N. c #65AC66",
"B. c #72B972",
"V. c #719569",
"C. c #3CC041",
"Z. c #44C443",
"A. c #49C744",
"S. c #4CC945",
"D. c #44C14A",
"F. c #48C648",
"G. c #54C546",
"H. c #53CC46",
"J. c #57C448",
"K. c #5CCC49",
"L. c #57C649",
"P. c #56D046",
"I. c #5AD347",
"U. c #57D148",
"Y. c #5CD449",
"T. c #5FD84A",
"R. c #4DC252",
"E. c #57C759",
"W. c #68CC49",
"Q. c #63D54A",
"!. c #6ED349",
"~. c #64D94A",
"^. c #6ADD4C",
"/. c #68D854",
"(. c #6BD554",
"). c #6DE04B",
"_. c #74E352",
"`. c #66CB66",
"'. c #6FD16D",
"]. c #70D16D",
"[. c #7CC07A",
"{. c #8C8D2B",
"}. c #8F8752",
"|. c #B2B943",
" X c #8A8179",
".X c #988470",
"XX c #A58C79",
"oX c #DAEA56",
"OX c #DEF052",
"+X c #E6F753",
"@X c #FEFF66",
"#X c #CFD94D",
"$X c #9B7C92",
"%X c #857B87",
"&X c #998C8A",
"*X c #9D928F",
"=X c #97908F",
"-X c #A79A9A",
";X c #B39C9D",
":X c #90B989",
">X c #BBA58F",
",X c #ACA9A9",
"<X c #C8B6A8",
"1X c #84C182",
"2X c #8BC287",
"3X c #92C38D",
"4X c #93CF88",
"5X c #8DDB85",
"6X c #92DE89",
"7X c #9ED395",
"8X c #A3D799",
"9X c #A0E095",
"0X c #BADCAC",
"qX c #C6CFBA",
"wX c #C6E8B5",
"eX c #CFF1BB",
"rX c #DAD3D1",
"tX c #E0DBD9",
"yX c #D9F3C4",
"uX c white",
"iX c #F1E8E6",
/* pixels */
"w.w.w.l.w.l.w.w.w.l.w.w.w.w.w.w.w.w.w.w.w.w.l.w.w.w.w.C.w.l.w.w.w.w.w.w.w.w.w.l.C.w.w.w.w.w.w.w.q.w.",
"D.w.w.w.w.w.w.w.w.w.w.w.w.w.C.C.w.w.w.l.C.w.w.w.w.w.w.w.w.w.w.w.C.w.w.w.w.w.w.w.w.w.w.w.w.C.w.w.C.C.",
"D.w.w.w.w.C.w.w.w.C.w.w.l.w.w.l.w.l.w.w.w.w.w.w.w.w.w.w.C.l.w.w.w.w.w.w.w.w.w.w.w.w.w.w.C.C.C.q.q.w.",
"D.w.w.w.w.l.w.w.w.w.w.w.C.w.w.w.C.w.w.w.w.w.w.w.w.w.w.w.w.w.w.w.w.w.w.C.w.w.w.w.w.C.C.R.S.F.q.C.C.w.",
"D.w.w.w.w.w.w.w.w.w.w.w.w.w.w.l.w.w.w.w.C.w.w.w.w.w.w.w.w.w.w.w.C.C.q.q.w.C.C.q.w.w.C.U./.H.q.C.q.w.",
"L.A.Z.w.w.w.w.w.w.w.w.l.w.w.w.w.w.w.w.w.w.w.w.w.w.w.w.w.w.w.w.w.q.C.C.C.w.q.C.w.w.w.C.R.P.F.C.q.C.w.",
"/.T.F.O.w.w.w.w.C.w.w.w.w.w.w.w.w.w.w.w.w.w.w.C.w.w.w.w.C.C.w.w.C.q.q.C.q.C.w.w.w.w.w.w.C.q.C.C.C.q.",
"/./.H.F.Z.C.S.R.D.w.w.w.C.l.w.C.w.w.l.w.l.w.D.S.Z.C.w.w.C.R.F.D.C.q.C.C.q.C.w.w.w.w.w.w.C.C.C.q.w.C.",
"/.^.^.T.F.w.I.~.F.w.w.w.l.w.w.w.w.w.w.w.w.w.S.Q.U.C.o.O.Z.Q.Y.Z.o.w.w.w.w.w.w.w.w.w.w.C.w.O.w.w.w.C.",
"/.).).^.U.S.~.^.S.w.w.w.w.w.w.w.w.w.w.w.w.w.Z.J.L.S.F.w.A.~.Q.Z.w.w.w.w.w.w.w.w.q.w.w.O.w.w.w.C.w.q.",
"_.^.^.).~.~.^.^.L.w.w.w.w.w.l.w.w.l.w.w.w.w.6.1.d.Q.U.C.Z.~.T.Z.q.w.w.w.w.w.w.w.C.w.w.w.w.w.w.w.C.q.",
"_./.K.K./.^.Q.L.D.w.w.w.w.w.w.w.w.w.w.w.O.w.9.1.z.~.T.C.:.~.T.Z.o.w.w.w.w.w.w.w.w.w.w.w.w.w.w.w.C.C.",
"_.(.f.s.W.~.d.2.0.w.w.w.w.w.w.w.w.C.C.w.w.w.w.9.A.^.Y.C.A.^.~.Z.w.w.w.w.C.q.C.C.C.q.C.C.w.w.O.w.q.C.",
"E.c.<.,.x.J.8.1.0.w.w.w.w.w.w.w.d.%.j.w.w.w.w.w.A.L.G.Z.C.H.G.Z.w.w.w.w.C.C.q.q.q.C.C.q.w.w.w.w.C.q.",
"f.<.,.>.<.2.7.0.w.w.w.w.w.x.n.c.p.B e.j.w.w.w.w.+.2.4.0.9.2.4.0.C.w.w.C.q.C.C.C.C.C.w.C.w.w.w.C.C.C.",
"3.<.<.1.,.1.0.C.w.d.r.b.m.m.%X( ( / W a.C.k.C.w.| 1.4.q.X.1.4.+.y.g.f.f.j.w.q.C.q.q.C.q.w.w.w.O.q.C.",
"l.0.0.0.0.0.w.l.r.p.;X-X&XG > & O & k a.h.v l.w.q.0.+.;.d.9.9.r.t.m n W ( u.%.k.w.w.w.w.w.w.w.w.q.C.",
"l.C.C.w.C.;.z.e.W &X) x A .X~ A ; $ > |.}.z d.C.;.;.o.%.v O.w.t.L o 2 P ! ;X$Xp.r.O.w.w.w.w.w.w.w.q.",
"R.w.q.w.w.a.i.~ E j ; D .X! U E k t |.OXK F u O.w.O.=.e.u.C.w.t.2 j D T C A ) -X$Xh.O.w.w.w.w.C.w.w.",
"D.w.Z.Z.%.t.~ U l & b ~ T G E S l s oXoXp k % 3 }.^ & I r.O.O.c b 2 D .X/ C P C &XN.g.w.;.C.Z.:.w.C.",
"D.Z.U.U.@.! B f : 3 t G R z g n 1 s @X#X# * b N z N N D . {.+Xu f = l T XX/ A A C U M.g.C.H.I.:.q.q.",
"l.Z.Q./.e.c #.#.j.l.=.5 c %.r w I u {.i %X*XC U R E Z A %X^ +Xs - D 2 B D ) Q R b : P N.h.U.^.I.D.C.",
"l.Z.~.~.a r w.D.w.w.C.-.*.w.q.%.j N * % rXuX<XQ Z A &XrXuXI < K D w w u.+ 1 ~ Y 0 $.@.f.v.g.^.~.T.C.",
"D.Z.I.Y.D.w.w.w.w.w.w.w.w.w.C.Z.=.c - ; A tXuX-X+ ; iXuX-XD W I w #.=.I.9 w P e #.K.~.$.t.v.!.^._.F.",
"D.q.s.s.0.w.w.w.w.w.w.w.w.w.A.I.S.k.r = U D ,X/ 2 1 -X-XC b : 5 #.C.q.6. .8 5 =.C.Y.).Q.c.8 !.^./.T.",
"D.0.1.1.0.w.C.w.C.w.w.w.w.w.U.^.P.C.C.*.g Q W n V m D T P , &.*.w.;.q.[ _ o.=.w.Z.H.Q.^.!.W.^.~.T./.",
"D.w.6.6.w.l.w.w.w.w.w.w.w.w.I.^.P.;.Z.c.  n >X<XXX>X<Xn % o.=.;.C.C.q.X.9.q.w.O.O.s.z.W.)._.^.J.C.E.",
"D.C.w.w.w.w.w.w.w.w.w.O.w.w.U.~.P.C.G.7 @.#.c m m n r.' 4 a.D.;.q.w.w.w.w.w.w.C.q.} ' -.!.).Q.d.1.l.",
"D.w.w.w.w.w.w.w.w.w.w.w.w.C.U.^.P.C.H.!.H.X.&.*.*.*.O...u.y 6XF...;.;.w.;.w.w.O.w.9.4.7.s.d.s.2.>.<.",
"D.w.w.w.w.w.w.w.w.w.w.w.w.;.H.~.S.;.S.~.U.C.q.w.w.w.C.C.].eXwX`.;.;.C.C.w.w.w.w.w.w.+.4.,.,.,.,.,.>.",
"D.w.w.w.w.w.w.w.O.w.w.w.O.w.0.j.k.w.w.*.0.;.;.w.O.O.E.6X7X:X1X9X5XR.o.O.w.w.w.w.w.C.C.9.4.4.4.4.4.4.",
"D.w.w.w.w.w.w.w.w.w.w.w.C.w.{ _ | w.| _ [ w.;.w.O.o.'.eX0Xi.v.wXwX`...O.w.w.w.w.w.w.w.w.w.w.C.w.w.C.",
"D.w.w.w.C.C.q.q.C.q.q.C.C.q.9.6.X.w.X.[ { ;.C.w.w.o.R.1X3X3X3X:XB.R.q.w.q.C.q.q.C.C.w.C.q.C.q.C.C.C.",
"D.w.w.w.q.C.C.C.C.C.C.C.q.C.C.q.w.C.C.w.C.C.w.w.w.C.6.` N.wXwXM.1.0.C.w.C.C.C.C.C.q.C.q.C.C.q.C.w.q.",
"D.w.w.w.C.q.C.q.q.q.q.q.q.C.C.q.o.o.`.5X'.C...w.w.;.9.[ n.2X:Xs.[ q.C.q.C.q.q.C.q.q.C.w.C.C.C.q.C.C.",
"D.w.w.w.C.q.C.w.C.C.C.C.C.q.C.C.o.C.5XyX9XD.o.w.w.w.w.C.9.1.1.0.C.C.q.C.C.q.C.C.C.C.w.C.q.q.C.C.q.C.",
"D.w.w.w.w.w.w.w.C.C.F.H.C.C.C.C.`.5X4XV.J H w 6 0 q q 6 q | } o.C.C.C.q.C.C.C.q.w.C.w.w.C.C.q.C.C.q.",
"D.w.C.O.w.w.C.q.C.C.U.~.F.C.q.C.4XyXM X . X X . X . . . @ q w.w.C.q.C.q.C.q.C.q.w.C.q.w.q.C.q.C.C.q.",
"D.w.w.w.w.w.w.C.q.C.F.U.C.C.q.C.'.7X3XH M H 8 @ 4 X 6 6 ] O.w.w.q.q.C.C.q.q.C.C.w.q.w.w.q.w.C.w.C.C.",
"D.w.w.w.w.w.O.w.q.C.C.C.C.C.C.q.} y.2XqX:Xi.} +.X.w.O.w.w.w.w.w.C.C.C.q.C.C.C.q.C.C.w.C.C.w.w.w.q.C.",
"C.w.w.w.C.q.w.w.C.q.q.C.q.q.C.q.{ _ B.8XB.<.| A.Z.C.q.;.C.A.S.C.q.C.C.C.C.q.q.C.q.C.C.C.q.q.C.q.C.C.",
"R.w.w.C.w.w.w.w.C.C.C.q.C.C.C.C.w.q.7.3.s.0.A.Q.U.C.;.;.A.T.T.C.q.C.q.q.q.C.C.C.w.w.q.C.C.C.C.C.C.C.",
"C.w.w.q.w.w.w.C.q.q.C.C.q.C.q.C.C.w.| _ 4.w.F.G.S.S.A.;.A.).T.A.q.C.q.C.q.q.C.q.w.C.q.q.C.q.q.C.C.C.",
"R.w.C.w.w.w.C.q.C.C.q.C.C.C.q.C.w.w.w.q.q.w.X.[ *.Y.I.C.C.T.T.Z.q.C.C.C.q.D.q.C.q.C.C.C.C.C.q.C.C.C.",
"C.C.C.q.C.q.C.C.w.w.C.C.q.q.C.C.w.w.;.;.C.w.| [ *.~.T.;.C.).T.Z.q.C.q.w.q.C.C.l.C.q.q.C.q.q.C.q.C.C.",
"R.q.w.C.w.C.q.C.q.w.w.q.C.C.C.q.w.w.w.w.w.w.q.o.F.^.T.:.F.T.T.Z.q.C.w.w.C.C.q.q.q.C.C.C.C.C.q.C.C.F.",
"D.q.w.w.C.q.q.C.C.w.w.w.w.C.q.C.w.w.w.w.w.w.C.O.A.H.H.w.C.R.R.C.w.w.C.w.C.q.q.C.l.C.C.q.q.C.C.q.w.D.",
"D.C.C.q.C.q.C.w.w.w.w.w.w.C.q.C.w.w.w.w.w.w.;.w.+.} | +.q.4.4.q.C.w.w.q.q.C.C.C.q.C.q.C.C.l.C.C.C.C.",
"C.C.q.C.C.q.C.C.q.C.q.C.q.C.C.q.C.C.q.C.q.C.C.q.9._ [ q.q._ _ q.C.q.C.C.q.w.w.C.w.w.w.w.w.w.w.w.w.q.",
"R.D.D.D.D.D.D.D.D.D.R.D.D.D.D.D.D.D.D.D.D.D.D.D.D.l.l.l.D.l.l.D.D.D.D.D.D.D.D.D.D.D.D.D.D.D.D.D.D.D."
};
