/* XPM */
static char *result[] = {
/* columns rows colors chars-per-pixel */
"50 50 254 2 ",
"   c #010001",
".  c #02010A",
"X  c #0A070A",
"o  c #080814",
"O  c #160B19",
"+  c #0C141B",
"@  c #14151A",
"#  c #1B1C1E",
"$  c #181616",
"%  c #180B0C",
"&  c #290A03",
"*  c #2C150E",
"=  c #36170B",
"-  c #2B1514",
";  c #132917",
":  c #2E2617",
">  c #352A1B",
",  c #26351E",
"<  c #191B22",
"1  c #061123",
"2  c #231827",
"3  c #0F2C2C",
"4  c #2C2C2C",
"5  c #262524",
"6  c #373325",
"7  c #3B3B3B",
"8  c #343436",
"9  c #2E2F2D",
"0  c #432612",
"q  c #4B3118",
"w  c #49372B",
"e  c #4C3327",
"r  c #673E27",
"t  c #602B0E",
"y  c #2B441F",
"u  c #294922",
"i  c #375230",
"p  c #287833",
"a  c #387639",
"s  c #336D2E",
"d  c #1C7A31",
"f  c #5B451C",
"g  c #664D1C",
"h  c #755B1B",
"j  c #6F5619",
"k  c #584B37",
"l  c #514B2E",
"z  c #765339",
"x  c #6E522E",
"c  c #497231",
"v  c #706E32",
"b  c #7E611B",
"n  c #0C3846",
"m  c #393C44",
"M  c #242F47",
"N  c #433D42",
"B  c #324849",
"V  c #3C4A6B",
"C  c #317275",
"Z  c #10515D",
"A  c #454545",
"S  c #4A4A4A",
"D  c #494548",
"F  c #585759",
"G  c #4C504E",
"H  c #685C46",
"J  c #6B5A4C",
"K  c #556D53",
"L  c #756848",
"P  c #686859",
"I  c #65775A",
"U  c #777859",
"Y  c #6D714A",
"T  c #587B68",
"R  c #5C6575",
"E  c #686768",
"W  c #767D64",
"Q  c #767677",
"!  c #6A746C",
"~  c #695E68",
"^  c #8A5611",
"/  c #AB5709",
"(  c #946B17",
")  c #926D15",
"_  c #A57A19",
"`  c #AE6813",
"'  c #85572C",
"]  c #89693B",
"[  c #986A36",
"{  c #987537",
"}  c #8F6B2C",
"|  c #AF7330",
" . c #A35D22",
".. c #E57B17",
"X. c #C3772E",
"o. c #DE7E00",
"O. c #896C44",
"+. c #987A49",
"@. c #877B56",
"#. c #8D764C",
"$. c #A8794C",
"%. c #2C8534",
"&. c #328434",
"*. c #368B37",
"=. c #35973A",
"-. c #319133",
";. c #38A53C",
":. c #3BBD3E",
">. c #39B63F",
",. c #518C36",
"<. c #689736",
"1. c #42BD3D",
"2. c #49B93E",
"3. c #5AB93A",
"4. c #4FA838",
"5. c #66AC38",
"6. c #48C03E",
"7. c #57C33D",
"8. c #71CB3A",
"9. c #358C42",
"0. c #329241",
"q. c #379942",
"w. c #298D58",
"e. c #38A842",
"r. c #3AB441",
"t. c #3ABE41",
"y. c #37B541",
"u. c #329575",
"i. c #2AAC74",
"p. c #1BA357",
"a. c #51904E",
"s. c #788747",
"d. c #708C52",
"f. c #45AA44",
"g. c #41BE42",
"h. c #46BA48",
"j. c #53B945",
"k. c #54A347",
"l. c #68B942",
"z. c #6EAC46",
"x. c #578877",
"c. c #53866C",
"v. c #77876A",
"b. c #688A76",
"n. c #778D74",
"m. c #67937A",
"M. c #799579",
"N. c #74906D",
"B. c #48AC7A",
"V. c #73A96C",
"C. c #3CC041",
"Z. c #44C242",
"A. c #4CC243",
"S. c #44C14A",
"D. c #4AC24A",
"F. c #4BCA44",
"G. c #54C444",
"H. c #5BC443",
"J. c #57CA47",
"K. c #59D247",
"L. c #53C453",
"P. c #4DC453",
"I. c #6BCB44",
"U. c #65C844",
"Y. c #75CB45",
"T. c #7ACB45",
"R. c #73C544",
"E. c #65DA4A",
"W. c #6ADD4B",
"Q. c #66D448",
"!. c #77D447",
"~. c #69D952",
"^. c #65CD51",
"/. c #6DE14B",
"(. c #75E355",
"). c #72CF67",
"_. c #5CCC61",
"`. c #AD8313",
"'. c #B3882F",
"]. c #8B8E2B",
"[. c #CB960F",
"{. c #E9AE02",
"}. c #CF8D3A",
"|. c #DBA102",
" X c #E1D61E",
".X c #86885A",
"XX c #918D4F",
"oX c #A78A54",
"OX c #B08F4F",
"+X c #90AC50",
"@X c #848A67",
"#X c #969766",
"$X c #889975",
"%X c #8E936C",
"&X c #91A679",
"*X c #A5AB73",
"=X c #A6A168",
"-X c #C68E50",
";X c #83D849",
":X c #88E64C",
">X c #90EF4E",
",X c #83D969",
"<X c #007084",
"1X c #7C7A81",
"2X c #369993",
"3X c #0096AE",
"4X c #3AB2B5",
"5X c #32A6AB",
"6X c #17A99F",
"7X c #5B9888",
"8X c #4E9890",
"9X c #669987",
"0X c #729D84",
"qX c #6D8C80",
"wX c #59A698",
"eX c #48AD8F",
"rX c #63AA99",
"tX c #75AC92",
"yX c #73AC91",
"uX c #47A6A6",
"iX c #54AFA6",
"pX c #40AFB0",
"aX c #47B8B5",
"sX c #51B4AA",
"dX c #6BB7A9",
"fX c #669BA3",
"gX c #30C7AD",
"hX c #3CD39A",
"jX c #56C992",
"kX c #67C994",
"lX c #4FCCB1",
"zX c #69C6B4",
"xX c #2FBAC7",
"cX c #00BCDE",
"vX c #09CDD2",
"bX c #34C2C9",
"nX c #27C6D5",
"mX c #32C7D1",
"MX c #02DAF7",
"NX c #0CD7EA",
"BX c #00E6FE",
"VX c #04F8FF",
"CX c #1AE8F5",
"ZX c #31E1EA",
"AX c #2EDEEA",
"SX c #4AC9C9",
"DX c #52D0CE",
"FX c #6BE4D9",
"GX c #62D8D5",
"HX c #87AA88",
"JX c #99AD87",
"KX c #91B691",
"LX c #92D292",
"PX c #AAC899",
/* pixels */
"t.t.t.t.t.V.7.6.6.g.h.L.L.h.A.j.K.!.3.,.a c c c s c u u 0.q.q.=.%.=.;.>.y.y.y.t.t.y.t.C.t.t.t.t.t.t.",
"S.t.t.t.t.2.6.6.Z.6.1.S.g.6.G.K.3.y $ O O O < 2 2 O O @ ; u *.=.=.=.;.y.>.:.t.t.t.t.t.t.t.C.t.C.t.t.",
"S.t.t.t.:.F.6.6.1.g.6.1.1.A.Q.3.$ o 8 m m m l S D N B w 2 X u j.G.;.2.r.C.t.t.t.t.t.t.t.C.C.t.t.t.t.",
"S.t.t.t.C.6.6.:.:.g.D.Z.6.G.Y.y O D D A A A A B A A D D S 4 . <.:Xl.3.h.Z.C.t.t.t.t.C.Z.F.C.t.t.t.t.",
"C.C.t.t.t.Z.g.C.t.S.L.L.F.7.8.  N E 8 A A S S A S A A 7 F F . u :X8.,X_.Z.t.t.t.t.y.C.K.K.F.t.t.t.t.",
"L.Z.C.:.t.:.:.:.t.C.Z.D.L.8.5.X F ! 8 < < # @ @ < < < 8 E E   y !.8.,X).S.C.t.t.t.C.t.F.K.F.t.t.t.t.",
"~.K.Z.:.t.C.t.t.C.t.C.Z.1.!.i   F R D 6 : $ : > $ $ 0 H Q F % X <.:X8.3.h.C.t.:.C.C.t.C.C.t.t.t.t.t.",
"~./.K.F.C.C.Z.F.Z.t.t.C.F.!.i   F V '.{.# g [._ [.5 g |.W V O o <.:X8.8.D.Z.C.:.t.t.y.C.C.t.t.t.C.t.",
"~./.E.K.Z.C.K.E.F.t.t.t.A.Q.c . H OX'.f < b f h g f @ } }.Y # X <.:XR.Y.H.g.:.C.C.t.y.t.t.t.t.t.y.C.",
"~./././.J.F.E.W.F.C.t.C.1.!.i . v OXm # h ^ g ( g ) q M I '.$ @ <.;XT.Y.U.Z.Z.t.y.y.t.t.t.t.t.t.C.C.",
"(.~./.W.E.E.W.W.F.t.t.C.A.T.j X G R M q |.) ) _ ) `.`.A #XG # v $.OX!.T.U.6.6.:.C.y.t.t.t.t.t.C.C.y.",
"(.W.J.J.E.W.^.H.Z.t.t.g.H.4.^ > G ! B + _ {.[.|.{.{.6 g $.E O.OXOX+XY.8.U.j.t.C.t.t.t.t.t.t.t.t.C.C.",
"(.Q.f.q.^.E.f.e.r.t.6.Z.!.5.^ : V R N 2 j {._ ( [.[., ` O.@.oXJ y !.Y.T.8.6.t.t.t.t.t.t.t.t.t.t.C.C.",
"^.j.q.0.j.J.e.q.r.1.g.H._. X} o H U M 6 ( ( f j f ) _ '.J #.-X- ; ;X!.T.Q.C.t.t.t.t.t.t.t.t.t.t.C.y.",
"f.q.9.9.0.e.e.y.y.6.Z.U.~.<.q o v OXk 1 6 5 g `.> h | H J +.OX#.c Y.T.T.U.Z.t.t.t.t.t.y.t.t.t.t.C.C.",
"q.0.0.q.0.q.r.Z.C.t.Z.U.:Xu . @ S -X'.6 1 1 v `.x b w ] *X! ' -X-X+XY.Y.Y.6.t.t.t.t.t.t.t.C.t.t.C.C.",
"t.y.y.>.>.>.:.t.:.C.6.H.R., O + L +.J _ @ 4 w w _ z k ] %XiXZ r z XX!.T.Y.G.Z.:.t.t.t.t.t.t.t.t.t.t.",
"S.C.C.t.t.C.C.C.C.C.t.Q.,.o 5 X G R M r j 8 4 v '.x x '  .OXsXW g ,.:X!.T.H.Z.C.t.t.y.t.t.t.t.t.t.t.",
"S.t.t.t.t.t.t.t.:.6.6.Q.5.O # : F @.A < `.O.H $.'.*XtXn.zXsX+.+.e c ;XT.T.U.6.6.t.:.:.C.C.t.:.C.t.t.",
"S.C.C.6.C.t.t.t.t.C.7./.].O k z +.@.#.} }.z > ] #XwX$XHXAXxX] $.O ; ;XT.T.R.H.G.>.>.y.t.C.C.C.t.t.t.",
"S.Z.K.K.6.C.:.C.Z.6.J.l.b > [ oXqX@.| | 4 $ % @.$X! m.` dXI X.k o 5 !.;XY.Y.U.H.Z.;.>.>.t.F.K.F.t.t.",
"t.S.E.E.F.:.t.t.6.J.W.<.^ } rXaX9XW 9X&X^ P 3X0Xv.dXNX@.DXxXv.OXO.. ,.>X!.8.U.H.H.F.:.t.t.K./.K.C.C.",
"S.Z.E.E.F.t.:.3.5.3.Q.].o.#XVX2XaX8X8XxXoXPXFXzXzX*XSXc.@XqXsXwX-Xr ; I.XXXXT.K.H.U.Q.F.t.F./.E.K.F.",
"S.S.K.K.Z.6.2.k.N.XX5.^ / P 8Xc.SX4XL 5XG x T 6X3Xk @.wX4X2XW @.$X.X,., w -XOX8.U.Q.!.F.Z.K././.W.F.",
"C.t.e.f.t.Z.3.d.MXU [ *XXXP 7XnXv.] dXnX    .       = HXM.$XwXSXdXyXV.c 9 $.U 7.!.Q.!.E.K.E.W.W./.E.",
"S.r.q.0.r.J.5.P uXT $XSX%XN.uXAXuXx.3XZ             X l { }.KX4X+.zX9X'.k #.v 4.!.Y.Y.~.W.W.W.Q.K.~.",
"S.t.y.e.y.!.7.u.7XP wXb. .wXBXwXM.yXC .               1 0X@XoXoXL I $XO.| | @XN.<.!.R.H././.W.J.h.J.",
"S.t.t.t.t.R.,.I 9XU v.5Xc.[ 0XBX9X+.l                 n 7XM.n.sXU @.@X$X%X@X@XdXs.3.U.j.W.W.Q.f.0.f.",
"S.t.t.t.t.5.c.b.$XwX0XpXK 2X] v.aXxX3                 X k DXqXaX0XyXDXDXCX4X| JX7X<.U.e.e.f.f.q.9.f.",
"S.t.t.t.t.,.W rX#.[ 4XCX7X4Xb./ { rXn                   g FXxXX.XXi.M.KXtX#X0XW oX5.U.e.0.0.0.0.9.9.",
"S.t.t.t.t.v 9Xn.wXaXmX5X8XnXCXxXdXm.<                   B tX#.M.eXv ] 0X&XtXaXK oXd.2.y.e.e.e.e.e.e.",
"S.t.t.t.t.L w.2XwXHX0Xx.T U MXNXHXC                     3 @.| dXcX{ d.qXSXZXM.| @XY =.y.t.t.t.t.t.y.",
"S.t.t.t.t.i.v c eXN. .N.8X#.U N.SX3X.                   $ 5XLXKX5X.X.X$.dXlXwX+.$.v -.C.t.C.C.t.C.t.",
"S.t.t.t.t.gXM.[ BXnX/ ^ 4XnX] O.8Xn   $ 5 # # # < 5 #     <XaX&X-X8XNX8X@.| 4XuX#.*.;.t.t.t.t.t.t.t.",
"S.t.t.t.t.i.vXY .X9X@.m.N.5Xn = 5 < $ $ = * * * * * = % O # 3 e J v.M.sX@X| JXHXa.=.;.t.t.t.t.t.C.t.",
"S.t.t.t.t.-.a.W W I eXB.+X} # < % & q G uX7X7X7X9X7XuXK q & % o 3 oX#Xx.$X%XM.#Xf.=.;.:.t.t.t.t.t.t.",
"S.t.t.t.C.-.a.8Xn.m.hXdXHXz @ < : I DXZXDXKXJXJXJXKXDXZXDXb.> @ < x oXM.&XDXeXB.u.-.e.t.C.t.t.t.t.t.",
"S.t.t.t.t.=.q.V.#XSXnXwX+X4 . * 9XVXMXtX..$XbXaXxXHX..&XMXVXiX& @ k H - r U =XV.p.%.;.t.t.t.t.t.t.t.",
"S.t.t.t.t.-.a.m.d.k.v ].d.I e & rXVXMXm.X.OXyXyXyXoX| N.MXVXzX} x -XH 3 + % z $.z.-.-.C.C.t.t.t.t.t.",
"S.t.t.t.t.%.K oXc , : x @X.X{ + 9 m.sXNXnXiXiXrXrXiXxXMXsXx.H [ @X4XI ].k.+ % F d.&.%.t.t.t.t.t.t.t.",
"C.t.t.t.t.p k.I 2 0 q L <.6XkXq . & 0 I pX4X4XpXpX4X4XT 0 & % 2 H sXB.XXXX,.C uXw.s &.C.t.t.t.t.t.t.",
"S.t.t.t.t.*.*.i x *XGXNXP 2XkX{ 4 1 O % 0 0 0 0 0 0 0 * % 9 B m ] W XXeX5XyXFX+X&.p 4.t.t.t.t.t.t.C.",
"S.t.t.t.t.=.%.s eXNXu.I <.+Xv Q Q l 4 5 @ @ @ @ @ @ < 5 N Q Q 7 k $XqXXXlXfXzX4.p *.7.t.t.t.C.t.t.t.",
"S.t.t.t.t.4.*.&.6Xw.j xXjXOXe B Q E S A 7 7 7 8 7 7 A A E Q ! 8 o C n.a.gX*XV.*.p ;.A.t.t.t.t.t.t.t.",
"S.t.t.t.:.H.=.d s v B.ZXlXy 2 # 8 G 7 7 A S S S D A 7 7 S 7 4 @ q wXb.s.vXM.a p =.g.C.t.t.t.t.t.C.C.",
"S.t.t.C.C.A.J.h.-.a.LXs.w S Q D 5 2 5 # # 4 4 4 4 # $ 5 5 2 m k -X&Xm.z.6Xa.%.=.t.Z.C.t.t.t.t.t.C.F.",
"C.t.t.t.t.g.C.F.6.7.).s u F Q E G 7 N 7 9 4 4 4 9 9 9 7 D ~ 1XF v eX7X4.%.%.;.r.t.g.t.t.t.t.t.t.t.F.",
"P.t.t.t.t.C.t.t.Z.F.g.L.,Xa.K P S N N N D D D D D D N m D ~ Q N v i.a.,.%.=.>.g.t.t.t.t.t.t.t.t.C.C.",
"t.t.t.t.t.C.S.t.t.t.t.D.h.=.=.*.a a B i A N A N m N i i G K a a *.&.p s =.g.g.g.g.:.:.t.t.t.t.t.t.t.",
"P.C.C.P.P.t.S.P.S.S.S.S.t.r.f.q.=.&.&.&.a a a a a a a a %.%.%.%.=.e.f.f.D.D.D.G.D.D.D.S.S.S.S.S.S.h."
};
