/* XPM */
static char *fdfc19e8a5de4752ddd9047ff3a8fa2aIe8MiJ8seeqMRsKO[] = {
/* columns rows colors chars-per-pixel */
"50 50 194 2 ",
"   c #2B1E2D",
".  c #2F212F",
"X  c #2F2F31",
"o  c #342531",
"O  c #362A33",
"+  c #3B2C35",
"@  c #2F3031",
"#  c #323232",
"$  c #3D3236",
"%  c #3D3835",
"&  c #412C37",
"*  c #422F38",
"=  c #413237",
"-  c #453239",
";  c #4C363C",
":  c #443B3A",
">  c #50373D",
",  c #543A3F",
"<  c #2A4431",
"1  c #374A36",
"2  c #385B39",
"3  c #2E6339",
"4  c #326E39",
"5  c #32733A",
"6  c #39773C",
"7  c #46463B",
"8  c #4C4A3D",
"9  c #52403F",
"0  c #514F3E",
"q  c #48573E",
"w  c #447D3F",
"e  c #563E40",
"r  c #5A3E41",
"t  c #554241",
"y  c #5D4343",
"u  c #544C41",
"i  c #5B4944",
"p  c #505640",
"a  c #5B5244",
"s  c #535B41",
"d  c #5E5A46",
"f  c #624645",
"g  c #644A46",
"h  c #674B48",
"j  c #6A4D49",
"k  c #635347",
"l  c #635947",
"z  c #6C524B",
"x  c #6D594B",
"c  c #73554D",
"v  c #75594E",
"b  c #775A50",
"n  c #7A5B51",
"m  c #586845",
"M  c #4A7D43",
"N  c #5B7647",
"B  c #6C634C",
"V  c #6F6E4D",
"C  c #73634D",
"Z  c #716D4E",
"A  c #786A4F",
"S  c #7F6254",
"D  c #7A6950",
"F  c #717D51",
"G  c #7B7B52",
"H  c #826555",
"J  c #866957",
"K  c #876A58",
"L  c #896D59",
"P  c #837855",
"I  c #8E725B",
"U  c #91765D",
"Y  c #93785E",
"T  c #3F8E42",
"R  c #3A9346",
"E  c #3B9C44",
"W  c #3CA346",
"Q  c #3DAC46",
"!  c #3FB447",
"~  c #4B8342",
"^  c #488B44",
"/  c #568F4A",
"(  c #479A46",
")  c #64874C",
"_  c #629B4F",
"`  c #748252",
"'  c #7F8454",
"]  c #7B8C55",
"[  c #709853",
"{  c #44A345",
"}  c #42AA47",
"|  c #43A349",
" . c #48A94A",
".. c #4CAC4B",
"X. c #52AD49",
"o. c #41B447",
"O. c #40B947",
"+. c #42B249",
"@. c #4AB54A",
"#. c #41B948",
"$. c #41BC48",
"%. c #43BD48",
"&. c #43BE48",
"*. c #45BE49",
"=. c #4DBF4B",
"-. c #5FB74C",
";. c #53BB4D",
":. c #5ABC4E",
">. c #4EAF57",
",. c #58AB50",
"<. c #5DB954",
"1. c #64AC54",
"2. c #6AB957",
"3. c #7ABC5B",
"4. c #58A563",
"5. c #47C049",
"6. c #4CC34B",
"7. c #51C44D",
"8. c #5BC64E",
"9. c #55C94D",
"0. c #5CCB53",
"q. c #5FD150",
"w. c #61C54E",
"e. c #6AC553",
"r. c #64CE52",
"t. c #6BC857",
"y. c #77C65B",
"u. c #71CC5A",
"i. c #64D351",
"p. c #6BD455",
"a. c #72D059",
"s. c #858556",
"d. c #8A8258",
"f. c #8E885A",
"g. c #869B5A",
"h. c #93985D",
"j. c #86A25B",
"k. c #87BD5F",
"l. c #8EB660",
"z. c #94B762",
"x. c #A9AC67",
"c. c #A3B665",
"v. c #A9B666",
"b. c #AEBA69",
"n. c #B5BD6B",
"m. c #88C25E",
"M. c #8DC262",
"N. c #85CE60",
"B. c #8CCD63",
"V. c #93C364",
"C. c #99CC66",
"Z. c #82DC62",
"A. c #88DD65",
"S. c #96D467",
"D. c #98DD69",
"F. c #A6C369",
"G. c #A6CA69",
"H. c #B5C36D",
"J. c #B9C26E",
"K. c #A2D168",
"L. c #AEDB6E",
"P. c #BECB70",
"I. c #B9DB71",
"U. c #8EE267",
"Y. c #8EE867",
"T. c #94E769",
"R. c #9DEB6C",
"E. c #9FF16E",
"W. c #A9E76F",
"Q. c #A1EC6D",
"!. c #A1F36F",
"~. c #ADED71",
"^. c #BEE374",
"/. c #B7E973",
"(. c #B4EC72",
"). c #A4F670",
"_. c #ABF672",
"`. c #B3F674",
"'. c #BCF676",
"]. c #BFF678",
"[. c #C1CD71",
"{. c #C8D774",
"}. c #C6E476",
"|. c #CAE778",
" X c #D2E67A",
".X c #D6EC7C",
"XX c #D8EC7C",
"oX c #C0F677",
"OX c #C3F678",
"+X c #CDF67B",
"@X c #D4F67D",
"#X c #DBF67F",
"$X c #DFF680",
"%X c #E0F680",
/* pixels */
"4.| ! %.%.! } s x S i + , c y , f j v n n n n n H L I U U Y Y Y Y Y Y Y U U U H z g J i @ 5 W W E ! ",
">.+.! 5.%.! W p x S i $ > c , f c S H J J H H n H J J L U U Y Y Y Y Y Y I J J n g g J i @ 5 Q Q Q ! ",
"#.#.! ! %.%.| p x S i $ e z r z H I I U I U H H n H H H I U Y Y Y Y U U J H H c g g J i @ 5 ! ! ! ! ",
"%.%.%.%.%.%.{ p x S i + ; f r c L Y Y Y Y Y I J H H H H H I U Y Y U U J H J H n j g L i @ 5 Q &.&.! ",
"&.&.! ! #.#.{ p x S i O & r , z J I U U U Y U I I I I L H H I Y Y U L H H I I H j f K i # 5 Q ! &.! ",
"! &.5.5.%.! { p x S i O & , r f b H J J L U Y Y U U U I H H U Y Y J J n J I Y J z g J i @ 5 Q 5.&.5.",
"&.$.5.! %.#.{ p x S y + & r , r f z n H H I U Y Y U I I H H I U I J n v H I Y H z g J i @ 5 ! 5.&.$.",
"$.$.%.! %.#.{ p x H y o & , r r g z v n n J J L K I J H n H L I I I H n H J L n j f J i # 5 Q ! $.$.",
"$.$.$.$.%.! { p x S i O & , , f j c c n c H H H H H H H c H H H U I J n n H H v g g J f @ 5 Q 5.$.&.",
"$.$.$.$.%.#.{ s x S i O & , , f c n c n n c c c n c H c H c H H U U I H H n S c g g J i @ 5 Q ! &.5.",
"$.$.$.$.%.! { p x S i O & r > f c c n c n c c c c c H c K L K I U Y U I L L L S j g J f @ 5 Q &.5.q.",
"&.! &.5.6.*.{ p x S i O & , e f c n n c n n H c H c c H K L U U U I L L L L L S j g L 0 @ 6 @.&.5.q.",
"5.&.5.6.9.6.{ p x S i O = e e f c n n c c H j c j H H H H K U U I J H J H H H n g g J i # w =.6.6.i.",
"5.&.5.9.q.6.| p x S i O * > > h c n n n H H H c H H j H H H I U I H n n S n v x g g J i % ~ :.9.9.i.",
"5.&.&.9.q.6.W p x S i O * e > j H K H K H K H H H H K K H I U K H J J J J J J S j g J i # ~ w.r.q.p.",
"5.&.&.6.q.6.| s x S i O * r r c K U I U L H H H H H I I I I I H H L U U I Y U H z g J i # w :.i.i.i.",
"5.! %.@.@.@.{ p x H 9 + > f f c L Y Y Y Y Y K H K I Y I L H H H H H I U Y Y Y J j j J f O 4 X.r.r.:.",
"! %.! Q Q } { p x J 0 & , c c H I Y Y Y Y Y K n K I U I H H n n H H I I U U L H j f J f @ 3 ( 8.8.{ ",
"! 5.! ! Q } { 0 x H y & r H H H U Y Y Y Y Y L n K U Y I K H H n c H J H J H H H j g J f @ 3 ( @. .R ",
"$.! %.O.! ! { s z H r & , c c H I U U U U U K H K I Y U I U L H H H H c H H H j f g J 0 @ 4 E W R R ",
"&.$.$.$.%.o.{ q k v 9 & , H c H I I K K K K K H L U Y Y Y Y U L H H c H n n H j f f n 9 # 5 W Q W E ",
"&.$.$.$.%.+.( 0 g z > + > H c H L K H H n H H L U U U U U Y U U L H H c c c n z g r c , O 4 W o.+.o.",
"$.$.$.$.o.{ ~ 0 f g - O , j f H K H H H H H H L L L L L L L U Y I J H H H H H c g r j > $ 2 ^ ..;.*.",
"$.$.$.$.} M 0 9 , , & o & r f j n H L I L L K H n H n H H K U Y U L L I L L L H j , r , - % 2 _ y.=.",
"$.$.! } ^ m i z f r & . - f f j n L I L K J H n n H H H H H L L K K K H K L K H g r f f i t 0 N _ @.",
"$.$.! ^ m l z S H f - & > j j c L I I K H H n n H L L L L K H H H H H H H H H c f r j v n z u 0 w } ",
"$.$.! M a z S I L H > & r c c H I U L H n n n n H U Y Y U L H n n n n n c n n c f f b J I J g = # E ",
"$.$.! ~ a v I I L H , & r H H H I L n n n c n n K U Y Y Y U L L H H c n n n H n j f S I U I x : < E ",
"! %.+.M a n L U L H r & > f n n L L n H H n n n H L L I U U U U L H b c n S H v g f H I U I v : < W ",
"%.%.} M a x J I H H r o & r j n H H H L J J H n H H J H U U U U L H b b S H n j y f n L I L z : 1 ..",
"! %.! ~ d z n H H j >     o f n n H I I U I H n n n H H L U U U L H v n H L c y r f c S J n k 8 2 -.",
"! ! { / F B f i , > & &   o j n n L I L H H H n H H J J J K H H H S n H L I c f y g g z c f 0 q ) e.",
"%.! W 1.j.A e + O O & & . . h c b H K H c b v c S L L K H n H H n n H K I L c f g j y r r & , ) y.r.",
"*.! +.3.z.G e e ; ; e - o o h c b H H c g g g j b H J H n n H H J J H J J H j f j z r r > o % / 2.;.",
"%.! @.m.G.f.i h g g t - o . f c c n v k g g g g x b n b c H L L L L K H n c f r h j r > ; $ 1 ^ &.W ",
"%.! *.B.P.x.P x c c h r + o r h j j x Z F F ` F B z j j j b J L L K H z j j , > r h r ; - u N  .! W ",
"! !  .M.}.$Xb.b j j f ; o o e r g t B g.S.S.S.B.] k y y y j b n H n v g f t = + ; , , & $ ' k.e.$.! ",
"Q  .1.C.I.$XP.d e e ; : a Z P d.d.d.h.F.(.(.(.(.z.] ` ` ` Z x j j j v P s.F N m 7 & & . $ s.G.u.&.! ",
"W ,.3.L.$X$Xn.d % $ $ u ' b.J.J.J.J.[.}.@X@X@X+XL.V.M.M.M.] x j h j D x.c.V.k.[ q & $ O % h.K.u.$.$.",
"| 2.G.}.$X$XP.B u 8 8 m c.$X$X$X%X%X#X%X%X#X%X#X+X`.).).).l.G C C D f.{.+X`._.B.) 8 8 8 0 j.B.e.&.&.",
"<.B.^..X#X#X.XH.v.c.l.z.I.$X%X%X%X%X%X%X%X%X%X#X@XOX`.).).L.H.H.n.n.[.XX@X+X`.W.G.v.v.c.c.m.e.7.! &.",
"u.D./.@X#X#X#X.X X|./.W.'.@X@X+X+X@X#X%X%X%X%X%X#X@X'.`.)._.}.|..X XXX#X$X@X].`./.}.^.^.I.y.;.5.5.! ",
"Z.R./.+X#X%X%X%X$X#XoX`._.'.'.'.'.+X#X$X#X%X%X%X%X#X@X'._._.'.+X$X%X%X%X$X#X]._.`.'.'.'.~.y.@.! &.&.",
"A.E._.OX#X%X%X%X%X$XOX_.).).).!._.].@X@X#X#X%X%X%X%X#X@X_.)._.OX#X%X%X%X$X#XOX_.!.!.).).R.t...} ! 5.",
"U.E._.'.#X$X%X%X$X$X@X]._.).).).).`.'.'.OX@X%X%X%X%X#X@X`.).).OX#X%X%X%X$X$X+X'.`.).).).E.A.t.7.! %.",
"T.)._.'.@X$X%X%X$X$X$X+X]._.`._._._._._.`.+X#X$X%X%X#X@X_.)._.OX#X#X%X%X$X$X$X+X'._._._._.R.Z.0.5.5.",
"R.)._.'.#X$X%X%X$X$X$X$XOX'.oXOXoX`.).)._.'.+X#X%X%X#X@X_.)._.OX#X%X%X%X$X$X$X+X$X'.`.'.].`.Y.r.5.9.",
"~.)._.'.@X$X%X$X$X$X$X$X$X$X$X$X@X]._.).)._.OX#X%X%X#X@X`.)._.'.@X#X%X%X$X$X$X$X$X$X$X$X$X].Y.p.6.i.",
"OX`._.`.OX#X%X%X%X%X%X%X%X%X%X%X$X+X'._.).).'.@X%X%X$X#XOX`._.`.+X@X%X%X%X%X%X%X%X%X%X%X#X+XQ.t.6.i.",
"$XoX_.).`.+X%X%X%X%X%X%X%X%X%X%X$X#X+X`.).!.].@X%X%X$X#X@X'._._.'.+X%X#X%X%X%X%X%X%X%X%X#X#X(.a.7.i."
};
