/* XPM */
static char *cf351246d0fb4616cda43daa6ad7fb56vTZxOo9A33catUls[] = {
/* columns rows colors chars-per-pixel */
"50 50 166 2 ",
"   c #3A9546",
".  c #339844",
"X  c #3D9C47",
"o  c #399952",
"O  c #36A543",
"+  c #3DA446",
"@  c #3CAC46",
"#  c #3DA44C",
"$  c #3EB447",
"%  c #3FB847",
"&  c #3FB148",
"*  c #409B47",
"=  c #409748",
"-  c #429E48",
";  c #4D9C4D",
":  c #40AD47",
">  c #43A449",
",  c #44AB49",
"<  c #49AB4A",
"1  c #56A64F",
"2  c #41B547",
"3  c #40B947",
"4  c #42B449",
"5  c #4BB44A",
"6  c #41BC48",
"7  c #4ABD4C",
"8  c #51B54C",
"9  c #54BC4D",
"0  c #58BD4E",
"q  c #49A553",
"w  c #47AA50",
"e  c #4AAD52",
"r  c #53A25B",
"t  c #55AF5B",
"y  c #45BE56",
"u  c #4BBD51",
"i  c #5AB25E",
"p  c #62BD52",
"a  c #47AA6D",
"s  c #52A662",
"d  c #5FAB65",
"f  c #55A86F",
"g  c #48A875",
"h  c #67AF6C",
"j  c #62B765",
"k  c #67B46A",
"l  c #6EB273",
"z  c #74B676",
"x  c #71BD73",
"c  c #78B779",
"v  c #47C049",
"b  c #4BC24A",
"n  c #53C34C",
"m  c #51C64C",
"M  c #52C74C",
"N  c #56C54D",
"B  c #5CC34F",
"V  c #5AC44E",
"C  c #5EC54F",
"Z  c #53C84C",
"A  c #54C94D",
"S  c #55C94D",
"D  c #56CA4D",
"F  c #59CC4E",
"G  c #5ACC4E",
"H  c #5BCE4F",
"J  c #5DCF4F",
"K  c #5ED04F",
"L  c #5FD14F",
"P  c #4DC053",
"I  c #51C254",
"U  c #5FC650",
"Y  c #5DCC54",
"T  c #54C259",
"R  c #5BC45A",
"E  c #60D04F",
"W  c #62C651",
"Q  c #61CA50",
"!  c #62CD51",
"~  c #63CC52",
"^  c #6FC258",
"/  c #74CD5A",
"(  c #60D150",
")  c #61D250",
"_  c #63D351",
"`  c #65D252",
"'  c #63D451",
"]  c #66D552",
"[  c #68D352",
"{  c #68D652",
"}  c #6AD653",
"|  c #6CD753",
" . c #6BD953",
".. c #6CD953",
"X. c #6EDB54",
"o. c #75D158",
"O. c #4BC16C",
"+. c #55C46B",
"@. c #4EC374",
"#. c #63C764",
"$. c #6DC565",
"%. c #6EC06F",
"&. c #67C968",
"*. c #6DCB6D",
"=. c #70CC6F",
"-. c #78D46A",
";. c #74CE74",
":. c #73D070",
">. c #84C35F",
",. c #99DC67",
"<. c #9DD069",
"1. c #88DC77",
"2. c #C1E775",
"3. c #CCEE79",
"4. c #65BE95",
"5. c #60CA91",
"6. c #64CC9F",
"7. c #6AC3A3",
"8. c #82BA81",
"9. c #89C186",
"0. c #8FC28B",
"q. c #91CA8C",
"w. c #86D281",
"e. c #8BD286",
"r. c #87D588",
"t. c #92D78B",
"y. c #9CDF8E",
"u. c #97C997",
"i. c #9FCD9C",
"p. c #83D596",
"a. c #8AD793",
"s. c #8ED99D",
"d. c #9CD997",
"f. c #9ED09E",
"g. c #A5D69C",
"h. c #A7E296",
"j. c #A6E598",
"k. c #AEE59F",
"l. c #9ECFA2",
"z. c #8FD9B0",
"x. c #9BD7B2",
"c. c #94DBB2",
"v. c #99DBB5",
"b. c #97DDBD",
"n. c #A5D4A5",
"m. c #AADCA2",
"M. c #B3DAA8",
"N. c #A1DAB7",
"B. c #BEDFB1",
"V. c #AEE1A1",
"C. c #B6E5AA",
"Z. c #A8E5B0",
"A. c #BDE7BC",
"S. c #C4E6BE",
"D. c #C3EBBC",
"F. c #CBEDBD",
"G. c #C1E7C1",
"H. c #CDECC3",
"J. c #D6ECC4",
"K. c #D2EFCA",
"L. c #D8EEC8",
"P. c #D4F1C0",
"I. c #D3F0CC",
"U. c #DAF2CD",
"Y. c #E3F5CE",
"T. c #E7F7D1",
/* pixels */
"6 6 6 6 6 6 6 6 6 6 % 6 6 6 6 6 6 6 6 6 6 6 6 6 6 6 6 6 6 6 6 6 6 6 6 6 6 6 6 6 6 6 v F D v 6 6 6 6 ",
"2 7 b v 6 b b 6 6 6 6 6 6 6 6 6 6 6 6 6 6 6 6 6 6 6 6 6 6 6 6 6 6 6 6 6 6 6 6 6 6 6 b K F v 6 6 6 6 ",
"> 0 M b b F b 6 6 6 6 6 6 6 6 6 6 6 6 6 6 6 6 6 6 6 6 6 6 6 6 6 6 6 6 6 6 6 6 6 6 6 6 L F v 6 6 6 6 ",
"1 W ! D F ' D v 6 6 6 % 6 b b v 6 6 6 6 6 6 6 6 6 6 b v 6 6 v v v 6 6 6 6 6 6 6 6 6 v Z b 6 % 6 6 6 ",
">.o.| {  .] D 6 6 6 6 v v Z K b 6 6 % 6 6 6 6 6 7 M J M 6 6 b K b 6 6 6 6 6 6 6 6 6 % O $ % 6 6 6 6 ",
"^ p U ` ! V 7 6 % 7 b b b F { Y b 6 b b b 6 6 6 % Z L Z 6 b m m 6 % 6 6 6 6 6 % 6 6 % $ O % 6 6 6 6 ",
"9 < 5 C V < : 6 6 b F F b F X.] K b Z K b 6 6 6 v M E D 7 F m % % % 6 6 6 6 6 6 6 6 6 % 6 % 6 6 6 6 ",
"% + < 8 < > @ 6 6 M _ _ D _ X.X.E K K L A 6 6 6 v M L Z 7 L D $ % % 6 % 6 6 6 6 6 6 6 6 6 6 6 6 6 6 ",
"% % @ > + $ % 6 6 b _ { } { X.{  .E  .J M 6 6 6 % M L M % K Z % % 6 6 6 6 6 6 6 6 6 6 6 6 6 6 6 6 6 ",
"6 % $ @ $ % % % 6 6 9 W { X.} W C [ ! 9 6 6 6 6 % 7 7 6 v 9 5 v 6 6 6 6 6 6 6 6 6 % 6 6 6 6 6 6 6 6 ",
"6 6 % 3 % % 6 6 6 & > 5 ! [ ! < 8 B V , @ v 6 6 % % O $ % @ & % 6 6 6 6 6 % 6 6 6 6 6 6 6 6 6 6 6 6 ",
"6 6 6 6 6 6 6 6 6 & @ < 8 8 8 X - < < @ $ % 6 6 % % @ $ % @ @ % 6 6 6 6 6 6 6 6 6 6 6 6 6 6 6 6 6 6 ",
"6 6 6 6 6 6 6 6 6 $ $ @ > X X     X : 2 3 6 6 6 6 % % 3 6 % 3 3 6 6 % 6 6 6 6 % 6 6 6 6 6 6 6 6 6 6 ",
"6 6 6 % 6 6 6 6 6 6 6 $ @ + + + + + @ 2 6 6 6 6 6 6 6 6 % 6 3 v 6 6 6 6 6 6 6 6 6 6 6 6 6 6 6 6 6 6 ",
"% 6 6 % 6 v 6 6 6 6 6 % $ % 2 % 2 3 3 6 6 6 6 v 6 6 6 6 6 6 % 6 6 6 6 6 6 % 6 6 6 6 6 6 6 6 6 6 6 6 ",
"6 6 6 v b Z b 6 6 6 6 6 6 6 6 6 6 6 b D b 6 M b v 6 6 6 6 6 6 6 6 6 6 6 6 6 6 6 6 6 6 6 3 6 6 6 6 6 ",
"% v 7 7 M L D b v 6 v v v 6 % v 7 6 M N n 7 D D b $ 6 6 6 6 6 6 6 6 6 6 6 6 6 6 6 6 6 6 6 6 6 6 6 6 ",
"6 M b b Z ] ! F v P m m 6 6 6 % v D N 5 2 6 b b v 6 % v 6 6 6 6 6 6 6 6 6 % % % 6 6 6 6 % 6 6 3 6 v ",
"v L E D D ] X.] A A ) L v v v % M J 0 > @ 6 6 6 % 6 6 % 6 6 6 6 6 b 6 6 6 v 6 v 6 6 6 6 6 6 6 6 6 6 ",
"v L ] E E  .X...] L ] L v b D v M ! V 2 2 6 6 6 6 6 6 6 6 6 6 6 b Z b % 6 b Z M v 6 6 6 % 6 6 6 6 6 ",
"% N ! L [ ! [ |  .] Y M v M F v b V 9 6 6 6 6 6 6 6 6 6 6 6 6 6 b M M b 7 b L F v % 6 6 6 6 6 6 6 6 ",
"> > 9 ! W 8 C |  .Y 8 2 v v M 7 2 5 2 6 6 6 6 6 6 6 6 6 6 6 6 6 2 5 n D b D E F v 6 6 6 6 6 6 6 6 6 ",
"; = > 9 8 * 8 ~ ] 9 > + % 6 6 6 @ + + $ 6 6 6 6 6 6 6 6 6 6 6 % @ @ n { b Z E J v 6 6 6 6 6 6 6 6 6 ",
"<.p < > -   = > > > @ & % 6 6 6 2 & & % 6 6 6 6 6 6 6 6 6 6 6 6 2 6 n ] b Z E D v % 6 6 6 6 6 6 6 6 ",
"2./ 5 + X X + X O # $ % 6 6 6 6 6 % % 6 6 6 6 6 6 % 6 6 6 6 6 6 % 6 b m % b M b 6 6 6 6 6 6 6 6 6 6 ",
"3./ 7 2 @ @ @ @ $ % % % 6 6 6 6 6 6 6 6 6 6 6 6 6 6 6 6 6 % % 6 6 % % $ 4 % 2 $ 6 6 6 6 6 6 6 6 6 6 ",
"3./ 7 6 6 6 % 6 6 6 6 6 6 6 6 6 6 6 6 6 6 6 6 6 6 6 6 6 6 6 6 6 6 % O O $ $ O @ % 6 6 6 6 6 6 6 6 6 ",
"3./ 7 7 % 6 6 6 6 6 6 6 6 6 6 6 6 6 6 6 6 6 6 6 6 6 6 6 6 6 3 6 6 6 % % % % $ $ 6 6 6 6 6 6 6 6 6 6 ",
",.Y v 6 6 6 6 6 6 6 6 6 6 6 6 6 6 6 6 6 6 6 6 6 6 6 6 6 6 6 6 6 6 6 6 % % 6 6 6 6 6 6 6 6 6 6 6 6 6 ",
"! b 6 6 6 6 6 6 6 6 6 6 6 6 6 6 6 6 6 6 6 6 6 6 v P P v 6 6 6 6 6 6 6 6 6 6 6 6 6 6 6 6 6 6 6 6 6 6 ",
"3 6 6 6 6 6 6 6 6 6 6 6 6 6 6 b b 6 6 6 6 6 6 T &.:.*.T 6 6 6 6 6 6 6 6 6 6 6 6 % v 6 b v 6 6 6 6 6 ",
"6 6 6 6 6 6 6 6 6 6 6 6 6 6 6 F F 6 6 6 6 6 6 :.V.H.C.:.6 6 6 6 6 6 6 6 6 6 6 6 6 % v Y A v % 6 6 6 ",
"6 6 6 6 6 6 6 6 6 6 6 6 % 6 v L J b 6 6 6 6 O.p.D.Y.H.s.@.P 6 % v 6 6 6 6 6 6 6 6 6 v K K b % % 6 6 ",
"6 6 6 6 6 6 6 6 6 6 6 6 v % v L D 7 6 6 u T 5.z.G.L.H.c.7.+.P v % % 6 6 6 6 6 6 6 6 b X.K b % v % 6 ",
"6 6 7 b b 3 % 6 6 6 % 6 6 6 % 7 7 7 6 P &.r.c.x.i.i.l.x.b.a.*.Y b 6 6 6 % 6 6 6 6 v P 1.-.I % v 6 6 ",
"6 6 b F M 7 6 6 6 6 6 6 6 6 2 @ : $ 6 T t.H.K.n.l r h f.I.H.h.-.Z v 6 6 6 6 6 6 6 P +.j.t.#.P 6 6 6 ",
"6 M 9 9 5 6 6 6 6 6 6 6 6 6 % @ @ 4 6 T d.T.T.m.j < j h.T.T.k.$.6 6 6 6 6 6 6 6 P *.t.q.e.r.*.P % P ",
"6 J N < @ % 6 6 6 6 % 6 6 3 6 6 % 6 6 T t.J.U.V.*.R -.k.U.U.f.i & % 6 % 6 6 6 6 T e.M.z 9.g.w.I v P ",
"b ! V 5 @ 6 6 6 6 6 6 6 6 6 6 6 6 6 6 u %.u.N.n.d.y.j.Z.N.l.x e $ % 6 6 % 6 6 6 u x 0.0.0.9.%.u 6 P ",
"6 F M 7 2 6 6 6 % 6 6 6 % 6 6 6 6 6 6 6 e s 4.x.A.P.G.v.7.f q 4 % % 6 6 v % 6 6 7 e d i.9.d w % 6 % ",
"3 5 6 % 6 6 6 6 6 6 6 6 6 6 6 6 6 6 6 % $ @ a 7.S.T.F.u.g o O $ 6 6 6 6 6 6 6 6 4 $ < z k e & % % % ",
"% O + $ 6 6 6 6 6 6 6 6 6 6 6 6 6 6 6 6 % $ # z M.J.B.4.. . O % 6 6 6 6 6 6 6 6 % % 4 - > 4 % 6 6 6 ",
"6 @ $ % 6 3 6 6 6 % v 6 6 6 6 6 6 6 6 6 % % $ t z 8.c d O @ $ % 6 6 6 6 6 6 6 6 6 6 % @ & % 6 6 6 6 ",
"6 $ % % 6 6 6 6 6 6 % 6 6 6 6 6 % 6 6 6 6 % % 4 q q q & % $ % 6 6 6 % 6 6 6 6 6 6 6 6 % 6 % 6 6 6 6 ",
"6 6 6 6 6 6 6 6 6 6 6 6 6 6 6 6 6 6 6 6 6 6 6 % : + @ 2 6 6 6 6 6 6 6 6 6 6 6 6 6 6 6 6 6 % 6 6 6 6 ",
"6 6 6 6 6 6 6 6 6 6 6 6 6 6 6 6 6 6 6 6 % 6 v 6 6 6 6 6 6 6 6 6 6 6 6 6 6 6 6 6 6 6 6 6 6 6 6 6 6 y ",
"6 6 % 6 6 6 6 6 6 6 6 6 6 6 6 6 v % 6 6 6 v D M 7 6 6 6 6 6 6 6 6 6 6 6 6 6 6 6 6 6 6 6 % v 6 6 v P ",
"6 6 6 6 6 6 6 6 6 6 6 6 % 6 6 6 % 6 6 6 6 6 Z Z v 6 6 6 6 6 6 6 6 6 6 6 6 6 6 6 6 6 6 6 % % 6 6 6 T ",
"6 % 6 6 6 6 6 6 6 6 6 6 6 6 6 6 6 6 6 6 6 6 b v 6 6 6 6 6 6 6 6 6 6 6 6 6 6 6 6 6 6 6 6 6 6 6 6 6 T ",
"% v 6 6 6 v 6 6 6 6 v v 6 6 6 6 6 6 6 6 6 6 6 6 6 6 6 6 6 6 6 6 P P P 6 6 6 6 6 6 6 6 6 6 6 6 6 6 T "
};
