/* XPM */
static char *_67a8dee34364938a7dcafb29df1c3a3r0VIAHkYSRXZTEeG[] = {
/* columns rows colors chars-per-pixel */
"50 50 253 2 ",
"   c #040501",
".  c #040A02",
"X  c #0C0904",
"o  c #140B03",
"O  c #170C05",
"+  c #071905",
"@  c #181209",
"#  c #0F1F12",
"$  c #171812",
"%  c #240C03",
"&  c #25150A",
"*  c #261C17",
"=  c #331E12",
"-  c #062907",
";  c #132C0D",
":  c #073507",
">  c #0A3801",
",  c #19281A",
"<  c #163A17",
"1  c #2B2B0A",
"2  c #282317",
"3  c #35261A",
"4  c #183228",
"5  c #2A2825",
"6  c #342F2B",
"7  c #293929",
"8  c #3A3937",
"9  c #442A1B",
"0  c #54381E",
"q  c #633D16",
"w  c #452C21",
"e  c #493526",
"r  c #5A3926",
"t  c #413E3C",
"y  c #643D25",
"u  c #0C4813",
"i  c #154618",
"p  c #155417",
"a  c #2A4717",
"s  c #234D13",
"d  c #1E770A",
"f  c #13621B",
"g  c #1F7615",
"h  c #127A1F",
"j  c #3C6619",
"k  c #23771B",
"l  c #1A4E24",
"z  c #294A28",
"x  c #314D2D",
"c  c #395A26",
"v  c #1B6828",
"b  c #127924",
"n  c #167728",
"m  c #226726",
"M  c #376525",
"N  c #29782B",
"B  c #32722E",
"V  c #347B37",
"C  c #397A34",
"Z  c #504F1B",
"A  c #554A1D",
"S  c #764D0D",
"D  c #795319",
"F  c #497119",
"G  c #6D6F10",
"H  c #4D4B2E",
"J  c #684628",
"K  c #764A24",
"L  c #775426",
"P  c #694832",
"I  c #685730",
"U  c #765436",
"Y  c #4F6C2B",
"T  c #56682B",
"R  c #487828",
"E  c #6F662E",
"W  c #323F4B",
"Q  c #387744",
"!  c #23625E",
"~  c #494746",
"^  c #545553",
"/  c #6B574C",
"(  c #557354",
")  c #746750",
"_  c #454B70",
"`  c #596976",
"'  c #646464",
"]  c #6B726C",
"[  c #7C766A",
"{  c #787778",
"}  c #845B19",
"|  c #8F6A18",
" . c #845B30",
".. c #9C7726",
"X. c #8C6732",
"o. c #9D7B37",
"O. c #A27E28",
"+. c #A27D38",
"@. c #866847",
"#. c #997348",
"$. c #8D7253",
"%. c #977656",
"&. c #A17A54",
"*. c #8B7965",
"=. c #258C2A",
"-. c #2C882C",
";. c #338B2B",
":. c #2E9327",
">. c #2F9328",
",. c #309129",
"<. c #358A31",
"1. c #359335",
"2. c #3EA332",
"3. c #5EA618",
"4. c #589B28",
"5. c #508B38",
"6. c #47963B",
"7. c #569535",
"8. c #748F2C",
"9. c #748D38",
"0. c #6CA722",
"q. c #499941",
"w. c #759444",
"e. c #5B8760",
"r. c #7A857C",
"t. c #998919",
"y. c #AA9415",
"u. c #B79C17",
"i. c #B5A70F",
"p. c #A7A61F",
"a. c #BDA318",
"s. c #96872B",
"d. c #889629",
"f. c #8B8839",
"g. c #B59629",
"h. c #A68436",
"j. c #B08B30",
"k. c #B99536",
"l. c #81BE2B",
"z. c #C7B215",
"x. c #CAB02D",
"c. c #C7A637",
"v. c #D9BA3A",
"b. c #B7D435",
"n. c #BFE326",
"m. c #F2E71A",
"M. c #D5CC2F",
"N. c #DBC63B",
"B. c #E1C929",
"V. c #E8D629",
"C. c #F1DC2E",
"Z. c #E3CC33",
"A. c #EAD836",
"S. c #F1DA34",
"D. c #D0EE2D",
"F. c #F5E725",
"G. c #F9F529",
"H. c #EFED39",
"J. c #F8E439",
"K. c #988350",
"L. c #B48847",
"P. c #B18D4D",
"I. c #B59359",
"U. c #B0AC48",
"Y. c #928B76",
"T. c #B89569",
"R. c #A78E70",
"E. c #B69A7A",
"W. c #9EB177",
"Q. c #A1AE78",
"!. c #B9A578",
"~. c #D0A54F",
"^. c #DBB648",
"/. c #E1BB4E",
"(. c #C49F6F",
"). c #C9A87B",
"_. c #D3AF7D",
"`. c #95C479",
"'. c #D2D04A",
"]. c #ECD445",
"[. c #D7E750",
"{. c #4B5B88",
"}. c #526291",
"|. c #677190",
" X c #68AB8E",
".X c #6F9BA3",
"XX c #8A8A88",
"oX c #938E89",
"OX c #92918F",
"+X c #899391",
"@X c #969795",
"#X c #AC9D90",
"$X c #9AA499",
"%X c #8DB496",
"&X c #B4AC93",
"*X c #9A9EA0",
"=X c #94ACA9",
"-X c #A7A8A5",
";X c #ACAEAC",
":X c #A8B8AC",
">X c #B4B0AB",
",X c #B8B6B5",
"<X c #BDBDBB",
"1X c #CBAC85",
"2X c #D6B58B",
"3X c #C9B392",
"4X c #D1BC91",
"5X c #DABC97",
"6X c #C6B8A8",
"7X c #D5BFA9",
"8X c #9FC9A8",
"9X c #B5CCB6",
"0X c #E2C39A",
"qX c #D7C7B0",
"wX c #DCCDB8",
"eX c #E8CAA4",
"rX c #EED3AD",
"tX c #F1D6AC",
"yX c #EACFB0",
"uX c #E8D8BB",
"iX c #F5DBB4",
"pX c #F7DAB5",
"aX c #F8DEB6",
"sX c #F8E0B7",
"dX c #FEE5BD",
"fX c #82B3C3",
"gX c #B1B7CB",
"hX c #9DCFDB",
"jX c #B3CFCD",
"kX c #C4C3C3",
"lX c #C6C8C7",
"zX c #CCCCCC",
"xX c #D6D0C9",
"cX c #D4D4D3",
"vX c #D5D8DF",
"bX c #DCDCDB",
"nX c #E4D8C9",
"mX c #E6DEDA",
"MX c #D6E2D9",
"NX c #FCE8C6",
"BX c #EBE2D8",
"VX c #F5E9D2",
"CX c #E4E4E4",
"ZX c #EAE8E7",
"AX c #EDEDED",
"SX c #F2EBE5",
"DX c #E4F1E7",
"FX c #FAF4E9",
"GX c #E3EEF2",
"HX c #F3F3F3",
"JX c #F7F9F7",
"KX c #FBF9F6",
"LX c #FEFEFE",
/* pixels */
"LXLXLXLXLXLXLXLXLXLXHXAXAXAXAXAXAXAXAXAXDXDXDXDXDXDXGXJXJXJXJXLXLXLXLXLXLXLXLXLXLXLXLXLXAXAXAXAXAXAX",
"LXLXLXLXLXLXLXLXLXLXAXAXAXAXAXAXAXCX;X$X:X8X8X8X8X8X8X9X:X:XMXLXLXLXLXLXLXLXLXLXLXLXLXLXAXAXAXAXAXAX",
"LXLXLXLXLXLXLXLXLXLXAXAXAXAXAXAXCXqXx 4 m Q Q -.Q -.Q Q < 7 -XJXLXLXLXLXLXLXLXLXLXLXLXLXAXAXAXAXAXAX",
"LXLXLXLXLXLXLXLXLXLXHXAXAXAXAXbX@X.Xl < n =.=.=.=.=.=.=.u i ] *XCXLXLXLXLXLXLXLXLXLXLXLXAXAXAXAXAXAX",
"LXLXLXLXLXLXLXLXLXLXHXAXAXZXCX9X# + l =.1.2.2.2.2.2.2.2.=.v : # ;XFXJXLXLXLXLXLXLXLXLXLXAXAXAXAXAXAX",
"LXLXLXLXLXLXLXLXLXLXAXAXAXcXXX' i u n n =.=.=.=.=.=.=.=.n n f 4 ( |.kXLXLXLXLXLXLXLXLXLXHXAXAXAXAXAX",
"LXLXLXLXLXLXLXLXLXLXAXDXZX:X7 - v n n b b h h h =.h h h =.b b v : , +XJXLXLXLXLXLXLXLXLXAXAXAXAXAXAX",
"LXLXLXLXLXLXLXLXLXLXHXcX] ^ l p <.<.>.>.>.>.>.>.:.=.:.=.=.>.=.=.f p ~ ] <XJXLXLXLXLXLXLXAXAXAXAXAXAX",
"LXLXLXLXLXLXLXLXLXLXHXkX, - m B 7.4.3.3.3.3.4.4.4.4.4.3.4.4.4.7.;.B ; # OXHXLXLXLXLXLXLXAXAXAXAXAXAX",
"LXLXLXLXLXLXLXLXLXLXAXkX, ; B 5.8.0.b.n.D.n.d.8.8.8.b.D.d.8.9.9.5.1.< # +XJXLXLXLXLXLXLXAXAXAXAXAXAX",
"LXLXLXLXLXLXLXLXLXLXCX9X, : R 9.8.p.A.G.F.H.u.s.s.y.V.H.i.t.s.f.9.7.i ; +XAXLXLXLXLXLXLXAXAXZXAXAXAX",
"LXKXLXKXLXKXKXKXKXkX~ 7 l M 9.K...y.V.m.i.i.M.].g.y.V.G.m.Z.c.h.o.w.Y c z z -XKXLXKXKXKXHXHXHXHXAXHX",
"AXAXAXAXAXBXcXnXBX&X2 $ c T h.h.j.a.A.V.z.u.B.Z.z.a.V.m.m.V.x.g.h.f.T M 1 @ Y.BXnXnXBXAXLXLXLXLXLXLX",
"AXAXAXAXSXnXR.E.5X#Xy r A E L.v.].C.B.B.V.S.u.u.B.C.B.v.a.u.M.A.g.o.E J A 0 R.7X1XR.qXBXLXLXLXLXLXLX",
"AXAXAXAXSXqX%.P.2X).X. .D | x.Z.C.V.B.B.V.Z.j.y.B.J.v.~.L.j.v.A.x.g.| K L  .T.0XT.#.&XSXLXLXLXLXLXLX",
"AXAXAXAXSX7XU %.eXpXrX0X&.g.S.].u.i.C.V.i.j.+.y.V.J.z.h.(._.P.g.B.S.c.+._.tXpXaXT.U #XBXLXLXLXLXLXLX",
"AXAXAXAXSXxX*.R.).0XrX0X#.s.v.^.u.a.C.m.z.z.k.g.x.c.k.I.2X0XI.O.v.].c.#._.tX5X3XE.*.6XAXLXLXLXLXLXLX",
"AXAXAXAXAXSXSX6X) ) &X&XD S ..j.~.v.J.F.F.S./.~.| } I.2XtXtX(.+.~.^.k.+.T.4X*.I R.BXSXHXLXLXLXLXLXLX",
"AXAXAXAXAXSXSXxXY.+X=X%Xs.t.| ..~./.S.S.B./.k.&.o.#.1XeXaXaX1XI.P.h.c.U.W.%X+XY.6XSXAXAXLXLXLXLXLXLX",
"AXAXAXAXAXAXAXZXAXjX.X X[.N.| } ~.~./.c.j...}  .(.2XrXpXdXaX0X1XX.S x.[.`. XhXGXZXAXAXAXLXLXLXLXLXLX",
"AXAXAXAXZXAXAXAXGXjX! Q [.M.s.D  .} &.&... .&.&.5XeXeXeX1XR.@.U U | z.[.9.! fXGXAXAXAXAXKXKXLXLXLXLX",
"AXAXAXAXAXAXAXAXAX:X# < M.Z.k.X.% % @.%.K K (.5XpXpX0X1X@.w & O U h.N.].G X .XGXAXAXAXAXLXLXLXLXLXLX",
"AXAXAXAXAXAXAXAXAX;X$ 1 v.^...@.oXXX] / y K 5XyXpXpXR.%./ ^ { oX$.} c.'.I + XXCXAXAXAXAXLXLXLXLXLXLX",
"AXAXAXAXAXAXAXAXAX;X* 3 I.P.K E SXCX|._ /  .eXNXaXrX%./ _ }.gXFX*.q +.I.J & @XAXAXAXAXAXLXLXLXLXLXLX",
"AXAXAXAXAXAXAXAXAXbXkX#Xt 9 & e nXvX|.}.gXuXNXdXNXNXnXzX|.{.gXmX/ O = e [ >XcXAXAXAXAXAXLXLXLXLXLXLX",
"AXAXAXAXAXAXAXAXAXAXJXcX6 @ X = wXzX{ |.cXFXNXdXaXNXFXKXOX` >XyXH . o 2 OXCXAXAXAXAXAXAXLXLXLXLXLXLX",
"AXAXAXAXAXAXAXAXAXAXLXHX<XXX5 & R.#X6XqXBXNXdXdXNXNXNXVXwX6X&XR.3 . ' ;XcXAXAXAXAXAXAXAXLXLXLXLXLXLX",
"HXKXKXJXJXKXJXJXJXJXHXAXzX$X7 ; X.%.5XrXpXaXsXsXaXaXaXaXyX0X(.@.1 - r.zXCXKXJXJXJXLXJXJXHXJXHXHXHXHX",
"LXLXLXLXLXLXLXLXLXLXAXlX8 , m Z T A L @.!.4X4X4X4X4X4X4X$.I K A Z v 7 7 *XHXLXLXLXLXLXLXAXAXAXAXAXAX",
"LXLXLXLXLXLXLXLXLXAXkX*X4 4 ( ( H Z A T Y.Q.W.W.Q.Q.Q.Q.E H A Z ( e.7 $ *.kXZXLXLXLXLXLXAXAXAXAXAXAX",
"LXLXLXLXLXLXLXLXKXkX8 5 W ` jX9Xc < c m B V C V V C V C B M a a %XMX*.3 5 6 -XJXLXLXLXLXAXAXAXAXAXAX",
"LXLXLXLXLXLXLXZX<XXX5 * ~ ` -X#Xa s m n b b n b b b b n n n s a XX>X[ e = & [ ,XcXLXLXLXAXAXAXAXAXAX",
"LXLXLXLXLXLXLX,X5 & y y P e & @ Z H m n b b g n b h f n n m Y 0 @ O 9 J y y = @ |.KXLXLXAXAXAXAXAXAX",
"LXLXLXLXLXLXLX,X5 = @.#.&.) 1 # T T F c c j 0.0.0.0.F j M M Y T ; + I &.&.$.w O { KXLXLXHXAXAXAXAXAX",
"LXLXLXLXLXLXLX,X5 6 &X2XuX&Xc i 5.5.F A A G b.D.D.D.G Z Z Z R 5.s ; Y.sXqX3XP @ *.KXLXLXAXAXAXAXAXAX",
"LXLXLXLXLXLXLXbXXX{ ) ) r.) , > C C R R j j 0.l.l.0.F F R R 5.<.p - H r.) ) ] r.gXLXLXLXAXAXAXAXAXAX",
"LXLXLXLXLXLXLXLXJX<X5 O @ X . - m B 1.6.N k d d =.d g k 1.6.-.m - . X @ @ $ @XJXLXLXLXLXAXAXAXAXAXAX",
"LXLXLXLXLXLXLXLXLXbXXXXXY.' $ . ; u B -.,.,.,.:.:.;.<.<.,.-.p ; + . ^ OXOXOXzXLXLXLXLXLXAXAXAXAXAXAX",
"LXLXLXLXLXLXLXLXLXLXAXZXCX;X6     + l N 6.6.6.q.6.6.q.q.B v -     o oXHXHXJXLXLXLXLXLXLXAXAXAXAXAXAX",
"LXLXLXLXLXLXLXLXLXLXAXzX' H e w 2 2 - - : > : : > > > > : - ; = 3 e t / ,XJXLXLXLXLXLXLXAXAXAXAXAXAX",
"LXLXLXLXLXLXLXLXLXLXAXkX* & r y 0 9 o       $ 5 * , X     o = w y P = & OXJXLXLXLXLXLXLXAXAXAXAXAXAX",
"LXLXLXLXLXLXLXLXLXLXAXkX* @ y y y r 9 & X $ XX;X;X@X5 X * = r y y y = $ OXJXLXLXLXLXLXLXAXAXAXAXAXAX",
"LXLXLXLXLXLXLXLXLXLXAXkX6 = r r y y w 3 * 6 kXAXAXvX^ $ 3 w r y y y 3 3 @XHXLXLXLXLXLXLXHXAXAXAXAXAX",
"HXAXHXAXAXAXAXAXAXAXLXJXcX*X8 @ O O O 6 *XcXHXLXLXJXbX<Xt o o O O * { lXbXAXAXAXAXAXAXHXLXLXLXLXLXLX",
"AXAXAXAXAXAXAXAXAXAXLXLXLXzX' t 8 t t ' cXLXLXLXLXLXLXZX] t 8 8 8 t @XAXZXAXAXAXAXAXAXAXLXLXLXLXLXLX",
"AXAXAXAXAXAXAXAXAXAXJXLXLXJXmXcXbXbXbXbXJXLXLXLXLXLXLXAXcXzXzXzXzXzXBXAXAXAXAXAXAXAXAXAXLXLXLXLXLXLX",
"AXAXAXAXAXAXAXAXAXAXLXLXLXLXLXLXLXLXLXLXLXLXLXLXLXLXLXAXAXAXAXAXAXAXAXAXAXAXAXAXAXAXAXHXLXLXLXLXLXLX",
"AXAXAXAXAXAXAXAXAXAXLXLXLXLXLXLXLXLXLXLXLXLXLXLXLXLXLXAXAXAXAXAXAXAXAXAXAXAXAXAXAXAXAXAXLXLXLXLXLXLX",
"AXAXAXZXAXAXAXAXAXAXLXLXLXLXLXLXLXLXLXLXLXLXLXLXLXLXLXAXAXAXAXAXAXAXAXAXAXAXAXAXAXAXAXAXLXLXLXLXLXLX",
"AXAXAXAXAXAXAXAXAXAXLXLXLXLXLXLXLXLXLXLXLXLXLXLXLXLXLXHXAXAXAXAXAXAXAXAXAXAXAXAXAXAXAXAXLXLXLXLXLXLX"
};
