/* XPM */
static char *_d9d8a17ef9b43acc5de8b5f17a0e8feGHoWCeZ0KZ38lkcy[] = {
/* columns rows colors chars-per-pixel */
"50 50 178 2 ",
"   c #5A0100",
".  c #650000",
"X  c #6B0000",
"o  c #740000",
"O  c #7C0000",
"+  c #641D06",
"@  c #6A1A05",
"#  c #701D09",
"$  c #6F2209",
"%  c #72240B",
"&  c #632610",
"*  c #712A1C",
"=  c #702116",
"-  c #6E5F35",
";  c #755E37",
":  c #696935",
">  c #7B6237",
",  c #736834",
"<  c #840000",
"1  c #8B0000",
"2  c #930000",
"3  c #A60000",
"4  c #B70000",
"5  c #BD0000",
"6  c #A71600",
"7  c #B41D00",
"8  c #B31700",
"9  c #B31E17",
"0  c #B12501",
"q  c #A1261A",
"w  c #A9341A",
"e  c #C40000",
"r  c #CB0000",
"t  c #C40900",
"y  c #D40000",
"u  c #DE0000",
"i  c #D10903",
"p  c #C41406",
"a  c #C31508",
"s  c #D0110D",
"d  c #C51612",
"f  c #DD1E1A",
"g  c #E20001",
"h  c #F60001",
"j  c #FE0001",
"k  c #FF0209",
"l  c #E91E0A",
"z  c #E31314",
"x  c #FF1513",
"c  c #FF1D1A",
"v  c #F21B19",
"b  c #CB2214",
"n  c #FF3B18",
"m  c #CE3125",
"M  c #C43B2A",
"N  c #E72E25",
"B  c #FF2722",
"V  c #FF3E25",
"C  c #E73627",
"Z  c #935F3A",
"A  c #806E38",
"S  c #96693B",
"D  c #9A6A3C",
"F  c #A26839",
"G  c #A5723F",
"H  c #DD4C1C",
"J  c #E4491B",
"K  c #E64517",
"L  c #CF4923",
"P  c #DE4E22",
"I  c #DC5226",
"U  c #D9562B",
"Y  c #DA5F30",
"T  c #FF442B",
"R  c #FF4C34",
"E  c #FF4E3C",
"W  c #F24235",
"Q  c #FF533E",
"!  c #D46031",
"~  c #917B43",
"^  c #A77440",
"/  c #FF5541",
"(  c #FF5C45",
")  c #FF5E49",
"_  c #FF6146",
"`  c #FE664C",
"'  c #2B9C3B",
"]  c #249833",
"[  c #2BA13C",
"{  c #34A63D",
"}  c #36A83E",
"|  c #3DAB3F",
" . c #35B63F",
".. c #33BA3C",
"X. c #38BD3F",
"o. c #37C03E",
"O. c #338D40",
"+. c #329441",
"@. c #399642",
"#. c #339B41",
"$. c #3B9C42",
"%. c #3B9A4A",
"&. c #33A141",
"*. c #3AA142",
"=. c #38AF41",
"-. c #37B641",
";. c #39B541",
":. c #37BB40",
">. c #3ABE41",
",. c #449F4B",
"<. c #43A544",
"1. c #43AC46",
"2. c #52A545",
"3. c #5AAA45",
"4. c #41BE45",
"5. c #43BD4A",
"6. c #4ABA49",
"7. c #53BC45",
"8. c #49A352",
"9. c #52A459",
"0. c #64A552",
"q. c #6EA55D",
"w. c #7FA552",
"e. c #74A555",
"r. c #74B25A",
"t. c #6DB74A",
"y. c #6F9561",
"u. c #6EAD71",
"i. c #6CBE74",
"p. c #6AB475",
"a. c #71B775",
"s. c #3BC040",
"d. c #43C442",
"f. c #4CCA44",
"g. c #44C14B",
"h. c #4DC64A",
"j. c #4CC347",
"k. c #55C447",
"l. c #54CB46",
"z. c #5ECC49",
"x. c #56C748",
"c. c #5AD347",
"v. c #5DD548",
"b. c #4EC453",
"n. c #57C75B",
"m. c #61CE4A",
"M. c #62D54A",
"N. c #65DA4A",
"B. c #6ADD4B",
"V. c #66CE51",
"C. c #65D651",
"Z. c #6BDB52",
"A. c #6DE14B",
"S. c #70E54C",
"D. c #75E454",
"F. c #6FCB75",
"G. c #6AC173",
"H. c #71CF75",
"J. c #73D175",
"K. c #77D17C",
"L. c #79D577",
"P. c #64CA6B",
"I. c #848A49",
"U. c #B38A4C",
"Y. c #81A44F",
"T. c #84A452",
"R. c #86AA59",
"E. c #8AA657",
"W. c #80986D",
"Q. c #87D57A",
"!. c #8BE37B",
"~. c #93E77D",
"^. c #BABC99",
"/. c #97DB9A",
"(. c #AED7A2",
"). c #B2DDA5",
"_. c #B9DBAB",
"`. c #B5ECA5",
/* pixels */
"K.H.H.H.J.H.H.H.H.H.H.H.H.H.i.i.H.F.i.i.F.H.H.H.H.H.H.H.H.J.H.H.J.H.H.H.H.H.H.H.H.H.H.H.J.F.G.i.F./.",
">.>.>.>.>.>.>.>.>.>.>.>.>.>.;.;.>.>.;.;.>.>.>.>.>.>.>.>.>.>.>.>.>.>.>.>.>.>.>.>.>.>.>.s.>.>.>. .>.n.",
"g.>.>.>.>.>.>.>.>.>.>.>.>.>.>.X.>.>.>.>.>.>.>.>.>.>.>.>.>.>.>.>.>.>.>.>.>.>.>.>.>.>.>.>.>.>.s.s.>.H.",
"g.>.>.>.>.>.>.>.>.>.>.>.>.>.>.>.>.>.>.>.>.>.>.>.>.>.>.>.>.>.>.>.>.>.>.>.>.>.>.>.>.s.:.:.>.>.>.>.>.H.",
"g.>.>.>.>.>.>.>.>.>.>.>.>.>.>.>.>.>.>.>.>.>.>.>.>.>.>.>.>.>.>.>.>.>.>.>.>.>.>.>.>.s.d.d.s.>.>.>.>.H.",
"g.>.>.>.>.>.>.>.>.>.>.>.>.>.>.>.>.>.>.>.>.>.>.>.>.>.>.>.>.>.>.>.>.>.>.>.>.>.>.>.:.d.v.M.d.>.>.>.>.H.",
"h.d.s.>.>.>.>.>.>.>.>.>.>.>.>.>.>.>.>.>.>.s.>.>.>.>.:.>.s.>.>.>.>.>.>.>.>.>.>.>.:.s.c.v.d.>.>.>.>.H.",
"C.v.s.:.>.>.X.X.>.>.>.>.>.>.>.>.>.>.>.>.>.6.E.! F & ; 2.>.:.>.>.>.>.>.>.>.>.>.>.>.s.s.d.s.>.>.>.>.H.",
"Z.N.l.d.>.X.d.d.o.>.>.>.>.>.>.>.>.>.>.>.6.E.J R b . + > 2.d.s.s.>.>.>.>.>.>.>.>.>.>.:.:.>.>.>.>.>.H.",
"C.B.N.c.s.s.v.v.d.X.>.>.>.>.>.>.>.>.>.4.T.K R ) m o O @ > t.d.X.>.>.>.>.>.>.>.>.>.>.s.s.>.>.>.>.>.H.",
"Z.A.A.N.f.f.B.N.d.>.>.>.>.>.>.>.>.>.;.E.J T ( ( m o O O $ A 3.X.>.>.>.>.>.>.>.>.>.>.s.:.>.>.>.>.>.H.",
"Z.B.A.B.N.N.A.N.d.X.>.>.>.>.>.>.>.>.T.I V / / ( m o O < O % , 2.>.>.>.>.>.>.>.>.s.>.>.>.>.>.>.>.>.H.",
"D.N.z.z.N.B.M.k.d.>.>.>.>.>.>.>.>.w.I V Q Q Q _ M   < < < O $ : 2.>.>.>.>.>.>.>.>.>.>.>.>.>.>.>.>.H.",
"D.M.<.<.M.M.<.$.;.o.>.>.>.>.>.4.T.I V / Q Q ( ( f 1 X O < < O # : 2.>.>.>.>.>.>.>.>.>.>.>.>.>.>.>.H.",
"V.7.@.@.7.k.*.#.;.o.>.>.>.>.6.T.I T / E Q _ Q c j g 1 X O < < o + , 3.>.>.>.>.>.>.>.>.>.>.>.>.s.>.H.",
",.@.O.O.@.$.=.;.>.>.>.>.>.>.I.7 l ( ) / ( ( c j j k g 1 X O O o 2 8 ~ s.>.>.>.>.>.>.>.>.>.>.>.>.>.H.",
"%.+.#.#.+.#.:.s.>.>.>.>.>.>.w 5 e N ( ` Q c j j j j k g 1 X o 2 r u 0 6.>.>.>.>.>.>.>.>.>.>.>.>.s.H.",
"5.;.;.:.;.-.>.>.>.>.s.>.>.s.S r e e C / B j j k j j j k g 1 1 r u r p 4.>.>.>.>.>.>.>.>.>.>.>.>.:.H.",
"g.>.s.s.s.s.>.>.>.>.>.>.>.>.S e r e t z j j k j j j j k j i 5 u r r a 5.>.>.>.>.>.>.>.>.s.>.>.>.s.H.",
"g.>.:.:.>.>.>.>.>.>.>.>.>.>.S e r r 5 r h k j j j j j j j g r r r r a >.>.>.>.>.s.>.>.>.:.:.>.s.>.H.",
"g.s.d.d.s.>.>.>.>.>.>.>.>.>.S e r r e y h j j j j j j j j g e r r r a h.>.>.>.>.>.>.>.>.d.d.s.>.>.H.",
">.g.c.v.d.:.s.>.>.>.>.>.>.>.S r r r e y h j j j j j j j j u e r r r a M.d.X.>.>.:.:.:.d.c.v.d.:.:.J.",
"g.d.N.N.d.s.>.>.>.>.>.>.>.>.S e r r e y h j j j j j j j j u e r r r p B.f.X.>.X.d.d.s.d.v.B.l.s.>.H.",
"g.d.N.B.d.:.>.>.>.>.>.s.>.>.S e r y e y h j j j j j j j j u e r y r p Z.d.X.X.4.c.v.d.s.v.B.B.c.d.H.",
"g.d.z.x.d.>.>.>.>.>.>.>.>.s.D e r r e y h j j j j j j j j u e r r r a z.d.:.>.d.M.A.f.f.v.A.A.B.l.K.",
"g.-.*.$.;.>.>.>.>.>.>.>.X.d.G r r r e y h j j j j j j j j u e r r r a *.:.>.X.d.v.A.M.M.B.B.A.A.N.!.",
"g. .#.' -.X.>.>.>.>.>.>.:.d.^ e r r e y h j j j j j j j j g e r r r a &.-.>.>.>.l.m.B.A.A.N.z.z.B.~.",
"g.X.-.;.>.>.>.>.>.>.>.>.:.d.G e r r e y h j j j j j j j j u e r r r a ;.>.>.>.>.{ <.m.S.S.M.<.<.v.~.",
"g.>.s.o.>.>.>.>.>.>.>.s.:.d.^ r r y e y h j j j j j j j j u e r r r a d.>.>.o.;.' @.7.m.z.k.@.@.7.Q.",
"g.>.>.>.>.>.>.>.>.>.>.>.:.d.^ e r r e y h j j j j j j j j u e r r r a 4.>.>.>.>.;.;.*.$.%.@.O.O.@.a.",
"g.>.>.>.>.>.>.>.>.>.>.>.s.d.G e r r e y h j j j j j j j j u e r r r a 4.>.>.>.>.>.:.&.+.+.+.+.+.+.p.",
"g.>.>.>.>.>.>.>.>.>.>.>.>.-.Z e r r r u j j j j j j j j j y e r r r a 4.>.>.>.>.>.>.;.;.-.-.;.-.-.F.",
"g.>.>.>.>.>.>.>.>.>.>.>.s.:.Z e r g 4 5 h k j j j j j j j v s e r r p 4.>.>.>.>.>.>.s.s.s.s.s.s.s.H.",
"g.>.>.>.>.>.>.>.>.>.>.>.>.>.w y g y 2 o 5 k j j j j j j c Q W i e e 7 6.>.>.>.>.>.>.s.>.>.>.>.>.>.H.",
"g.>.>.>.>.>.>.>.>.>.>.>.>.>.e.6 4 3 O . O e k k j j j x E _ ` C r 8 I.s.>.>.>.>.>.>.>.>.>.>.>.>.>.H.",
"g.>.>.>.>.>.>.>.>.>.>.>.>.X.X.9.@ X O < X o e k j j x Q ( / ) R L I.6.>.>.>.>.>.>.>.>.>.>.>.>.>.>.H.",
"g.>.>.>.>.>.>.>.o.o.d.d.>.>.X.4.q.* o 1 < . o r h x Q ( / Q T Y Y.5.>.>.>.>.>.>.>.>.>.>.>.>.>.>.>.H.",
"g.>.>.>.>.>.>.>.X.d.v.M.d.X...n.`.^.* X < < X o d / ( Q Q T U T.4.X.>.>.>.>.>.s.>.>.>.>.>.>.>.>.>.H.",
"g.>.>.>.>.>.s.>.X.d.c.c.d.X...n.)._.y.* X 1 O . q ` Q / T I w.>.>.>.>.>.>.>.>.>.>.>.>.>.>.>.>.>.>.H.",
"g.>.>.>.>.>.>.>.>.o.d.d.X.X.X.4.9.a._.^.= o O o 9 ( / T H w.>.>.>.>.>.>.>.>.>.>.>.>.>.>.>.>.>.>.s.H.",
"g.>.>.>.>.>.>.>.>.>.X.X.>.4.o. .] 8.(._.y.@ . o 9 ) T H R.j.s.>.>.>.>.>.>.>.>.>.s.:.>.>.>.>.>.>.>.H.",
"g.>.>.>.>.>.>.>.>.>.>.>.>.>.>.X. .;.9.9.*.0.+   3 n P R.M.v.d.X.>.>.>.>.>.>.>.>.>.s.>.>.>.>.>.>.>.H.",
"g.>.>.>.>.>.>.>.>.>.>.>.>.>.>.>.s.;.' ' -.g.r., ~ U.R.k.M.N.d.>.>.>.>.>.>.>.>.>.>.>.>.>.>.>.>.>.:.J.",
"g.>.>.>.>.>.>.>.>.>.>.>.>.>.>.>.X.>. .;.s.>.{ | c.v.s.d.M.N.d.X.>.>.>.s.>.>.>.>.>.>.>.>.>.s.>.>.s.F.",
"g.>.>.>.>.>.>.>.>.>.>.>.>.>.>.>.>.>.o.s.>. .' { m.B.d.d.v.N.d.X.>.>.>.>.>.>.>.>.>.>.>.>.>.>.>.>.d.J.",
"g.>.s.>.>.>.s.>.>.>.>.>.>.>.>.>.>.>.>.>.>.>. .4.M.N.d.d.N.B.f.X.>.>.>.>.>.>.>.>.>.>.>.>.>.>.>.s.l.!.",
"g.>.>.>.>.>.>.>.>.>.>.>.>.>.>.>.>.>.>.>.>.>.X.d.l.c.s.s.l.c.g.>.>.>.>.>.>.>.>.>.>.>.>.>.>.>.>.d.c.!.",
"g.>.>.>.>.>.>.>.>.>.>.>.>.s.>.>.>.>.>.>.>.>.>.X.{ { ;.>.&.{ :.s.>.>.>.>.>.>.>.>.s.>.>.>.>.>.>.X.d.L.",
">.>.>.>.>.>.>.>.>.>.>.>.>.>.>.>.>.>.>.>.>.>.s.>.' ' :.>.' ' ;.s.>.s.>.>.>.>.>.>.>.>.>.>.>.>.>.>.:.P.",
"b.g.g.g.g.g.g.g.g.g.g.g.g.g.g.g.g.g.g.g.g.g.g.5.5.5.5.g.5.>.5.5.g.g.g.g.g.g.g.g.g.g.g.g.g.g.g.g.g.K."
};
